#VRML V2.0 utf8

Shape {
  appearance Appearance {
    material Material {
      diffuseColor 0.2078 0.2078 0.2078
      specularColor 0.0157 0.0157 0.0157
      ambientIntensity 0.2
      transparency 0.0000
      shininess 0.5
    }
  }
  geometry IndexedFaceSet {
    ccw TRUE
    solid FALSE
    coord DEF co Coordinate {
      point [
        0.085222 0.009439 0.000000,
        0.085222 -0.008086 0.000000,
        0.077780 -0.008086 0.000000,
        0.045131 0.009559 0.000000,
        0.045131 0.066929 0.000000,
        0.059535 0.066929 0.000000,
        0.098425 -0.094488 0.000000,
        0.093144 -0.094488 0.000000,
        0.093144 -0.066929 0.000000,
        0.059535 0.009559 0.000000,
        0.061456 -0.007066 0.000000,
        0.059535 -0.010367 0.000000,
        0.061456 -0.009226 0.000000,
        0.063554 -0.010088 0.000000,
        0.064349 0.009559 0.000000,
        0.063731 0.009516 0.000000,
        0.061456 0.008898 0.000000,
        0.061456 0.006258 0.000000,
        0.063673 0.007207 0.000000,
        0.061809 -0.007261 0.000000,
        0.066066 0.007518 0.000000,
        0.068004 0.007300 0.000000,
        0.069478 0.006769 0.000000,
        0.070840 0.005857 0.000000,
        0.072029 0.004545 0.000000,
        0.073459 -0.000614 0.000000,
        0.073259 -0.002745 0.000000,
        0.072725 -0.004438 0.000000,
        0.068344 -0.008120 0.000000,
        0.066508 -0.008326 0.000000,
        0.069779 -0.007592 0.000000,
        0.070987 -0.006778 0.000000,
        0.071911 -0.005803 0.000000,
        0.063895 -0.008036 0.000000,
        0.072840 0.003025 0.000000,
        0.073365 0.000918 0.000000,
        0.071206 -0.009578 0.000000,
        0.072789 -0.008567 0.000000,
        0.076940 -0.010367 0.000000,
        0.074268 -0.007011 0.000000,
        0.075317 -0.005139 0.000000,
        0.075061 0.004254 0.000000,
        0.073907 0.006094 0.000000,
        0.076940 0.009559 0.000000,
        0.072130 0.007804 0.000000,
        0.070260 0.008880 0.000000,
        0.068065 0.009517 0.000000,
        0.067558 0.009559 0.000000,
        0.075909 -0.003055 0.000000,
        0.076100 -0.000775 0.000000,
        0.075816 0.002023 0.000000,
        0.066334 -0.010477 0.000000,
        0.066872 -0.010487 0.000000,
        0.076940 -0.066929 0.000000,
        0.068030 -0.010367 0.000000,
        0.069298 -0.010235 0.000000,
        0.059535 -0.066929 0.000000,
        0.059535 -0.094488 0.000000,
        0.045131 -0.094488 0.000000,
        0.065543 -0.010367 0.000000,
        0.076940 -0.094488 0.000000,
        0.093144 -0.173228 0.000000,
        0.098425 -0.173228 0.000000,
        0.118110 -0.185039 0.000000,
        0.118110 -0.066929 0.000000,
        0.093144 -0.185039 0.000000,
        0.076940 -0.185039 0.000000,
        0.076940 -0.173228 0.000000,
        0.059535 -0.185039 0.000000,
        0.059535 -0.173228 0.000000,
        0.045131 -0.185039 0.000000,
        -0.098425 -0.039370 0.000000,
        -0.019685 -0.039370 0.000000,
        0.013924 -0.066929 0.000000,
        -0.118110 -0.066929 0.000000,
        -0.118110 -0.010367 0.000000,
        -0.098425 -0.010367 0.000000,
        0.013924 0.066929 0.000000,
        0.013924 0.009559 0.000000,
        -0.019685 0.009559 0.000000,
        -0.098425 0.009559 0.000000,
        -0.118110 0.009559 0.000000,
        -0.098425 0.039370 0.000000,
        -0.118110 0.066929 0.000000,
        -0.019685 0.039370 0.000000,
        0.011043 -0.010246 0.000000,
        0.013924 -0.010367 0.000000,
        0.008162 -0.010246 0.000000,
        -0.019685 -0.010367 0.000000,
        0.013924 0.004517 0.000000,
        0.093144 0.094488 0.000000,
        0.098425 0.094488 0.000000,
        0.118110 0.066929 0.000000,
        0.118110 0.196850 0.000000,
        0.098425 0.173228 0.000000,
        0.093144 0.196850 0.000000,
        0.093144 0.173228 0.000000,
        0.076940 0.173228 0.000000,
        0.076940 0.196850 0.000000,
        0.059535 0.173228 0.000000,
        0.059535 0.196850 0.000000,
        0.045131 0.173228 0.000000,
        0.045131 0.196850 0.000000,
        0.013924 0.196850 0.000000,
        0.021167 -0.004725 0.000000,
        0.013924 -0.004725 0.000000,
        0.013035 -0.004725 0.000000,
        0.023046 -0.010246 0.000000,
        0.025927 -0.010246 0.000000,
        0.045131 -0.010367 0.000000,
        0.015844 0.009439 0.000000,
        0.018485 0.009439 0.000000,
        0.028350 -0.004851 0.000000,
        0.029479 -0.006612 0.000000,
        0.031099 -0.008163 0.000000,
        0.033154 -0.009358 0.000000,
        0.034812 0.009135 0.000000,
        0.032509 0.008326 0.000000,
        0.030366 0.006890 0.000000,
        0.030346 0.006872 0.000000,
        0.028954 0.005328 0.000000,
        0.028039 0.003635 0.000000,
        0.035423 -0.010034 0.000000,
        0.037858 -0.010246 0.000000,
        0.043211 -0.010246 0.000000,
        0.043211 0.009439 0.000000,
        0.037656 0.009439 0.000000,
        0.027510 0.001696 0.000000,
        0.027367 -0.000156 0.000000,
        0.027643 -0.002791 0.000000,
        -0.118110 0.196850 0.000000,
        0.019685 0.173228 0.000000,
        0.019685 0.094488 0.000000,
        0.066088 0.009679 0.000000,
        0.076940 0.066929 0.000000,
        0.093144 0.066929 0.000000,
        0.093144 0.009559 0.000000,
        0.047532 0.009439 0.000000,
        0.047532 0.007278 0.000000,
        0.047052 -0.008086 0.000000,
        0.047052 -0.010246 0.000000,
        0.057615 -0.010246 0.000000,
        0.057615 0.009439 0.000000,
        0.054974 -0.001364 0.000000,
        0.054974 -0.008086 0.000000,
        0.048012 -0.001364 0.000000,
        0.048012 0.000796 0.000000,
        0.054974 0.000796 0.000000,
        0.054974 0.007278 0.000000,
        0.093144 -0.010367 0.000000,
        0.087863 -0.010246 0.000000,
        0.087863 0.009439 0.000000,
        0.077780 -0.010246 0.000000,
        0.045131 -0.066929 0.000000,
        0.019685 -0.094488 0.000000,
        0.013924 -0.185039 0.000000,
        0.019685 -0.173228 0.000000,
        0.045131 -0.173228 0.000000,
        0.045131 0.094488 0.000000,
        0.059535 0.094488 0.000000,
        0.076940 0.094488 0.000000,
        0.118110 0.009559 0.000000,
        0.118110 -0.010367 0.000000,
        -0.118110 -0.185039 0.000000,
        -0.118110 -0.196850 0.000000,
        0.013924 -0.196850 0.000000,
        0.045131 -0.196850 0.000000,
        0.059535 -0.196850 0.000000,
        0.076940 -0.196850 0.000000,
        0.093144 -0.196850 0.000000,
        0.118110 -0.196850 0.000000,
        0.118110 0.196850 0.125984,
        0.118110 -0.196850 0.125984,
        -0.118110 0.196850 0.125984,
        -0.118110 -0.196850 0.125984,
        -0.098339 0.165929 0.125984,
        -0.096908 0.169383 0.125984,
        -0.094633 0.152098 0.125984,
        -0.091667 0.149822 0.125984,
        -0.088213 0.148392 0.125984,
        -0.074382 0.172348 0.125984,
        -0.072107 0.169383 0.125984,
        -0.070676 0.165929 0.125984,
        -0.096908 0.155063 0.125984,
        -0.098339 0.158517 0.125984,
        -0.098827 0.162223 0.125984,
        -0.070188 0.162223 0.125984,
        -0.070676 0.158517 0.125984,
        -0.072107 0.155063 0.125984,
        -0.074382 0.152098 0.125984,
        -0.094633 0.172348 0.125984,
        -0.091667 0.174624 0.125984,
        -0.088213 0.176054 0.125984,
        -0.084507 0.176542 0.125984,
        -0.080802 0.176054 0.125984,
        -0.077348 0.174624 0.125984,
        -0.077348 0.149822 0.125984,
        -0.080802 0.148392 0.125984,
        -0.084507 0.147904 0.125984,
      ]
    }
    coordIndex [
      0, 1, 2, -1,
      3, 4, 5, -1,
      6, 7, 8, -1,
      9, 10, 11, -1,
      11, 10, 12, -1,
      11, 12, 13, -1,
      9, 14, 15, -1,
      15, 16, 9, -1,
      9, 16, 17, -1,
      9, 17, 10, -1,
      10, 17, 18, -1,
      10, 18, 19, -1,
      19, 18, 20, -1,
      19, 20, 21, -1,
      21, 22, 19, -1,
      19, 22, 23, -1,
      19, 23, 24, -1,
      25, 26, 19, -1,
      19, 26, 27, -1,
      28, 29, 30, -1,
      30, 29, 31, -1,
      27, 32, 19, -1,
      19, 32, 31, -1,
      19, 31, 33, -1,
      33, 31, 29, -1,
      24, 34, 19, -1,
      19, 34, 35, -1,
      19, 35, 25, -1,
      36, 37, 38, -1,
      38, 37, 39, -1,
      38, 39, 40, -1,
      41, 42, 43, -1,
      43, 42, 44, -1,
      44, 45, 43, -1,
      43, 45, 46, -1,
      43, 46, 47, -1,
      40, 48, 38, -1,
      38, 48, 49, -1,
      38, 49, 43, -1,
      43, 49, 50, -1,
      43, 50, 41, -1,
      51, 52, 53, -1,
      53, 52, 54, -1,
      53, 54, 38, -1,
      38, 54, 55, -1,
      38, 55, 36, -1,
      56, 57, 58, -1,
      59, 51, 56, -1,
      56, 51, 53, -1,
      56, 53, 57, -1,
      57, 53, 60, -1,
      61, 62, 63, -1,
      63, 62, 64, -1,
      63, 65, 61, -1,
      61, 65, 66, -1,
      61, 66, 67, -1,
      67, 66, 68, -1,
      67, 68, 69, -1,
      69, 68, 70, -1,
      71, 72, 73, -1,
      74, 75, 76, -1,
      77, 78, 79, -1,
      76, 75, 80, -1,
      80, 75, 81, -1,
      80, 81, 82, -1,
      82, 81, 83, -1,
      82, 83, 84, -1,
      85, 86, 87, -1,
      87, 86, 88, -1,
      87, 88, 89, -1,
      90, 91, 92, -1,
      92, 91, 93, -1,
      93, 91, 94, -1,
      93, 94, 95, -1,
      94, 96, 95, -1,
      95, 96, 97, -1,
      95, 97, 98, -1,
      98, 97, 99, -1,
      98, 99, 100, -1,
      100, 99, 101, -1,
      100, 101, 102, -1,
      102, 101, 103, -1,
      104, 86, 105, -1,
      105, 86, 85, -1,
      105, 85, 106, -1,
      104, 107, 86, -1,
      86, 107, 108, -1,
      86, 108, 109, -1,
      88, 79, 89, -1,
      89, 79, 78, -1,
      89, 78, 110, -1,
      110, 78, 111, -1,
      112, 113, 108, -1,
      108, 113, 114, -1,
      108, 114, 115, -1,
      116, 117, 111, -1,
      111, 117, 118, -1,
      118, 119, 111, -1,
      111, 119, 120, -1,
      111, 120, 121, -1,
      115, 122, 108, -1,
      108, 122, 123, -1,
      108, 123, 109, -1,
      109, 123, 124, -1,
      109, 124, 3, -1,
      3, 124, 125, -1,
      3, 125, 126, -1,
      121, 127, 111, -1,
      111, 127, 128, -1,
      111, 128, 108, -1,
      108, 128, 129, -1,
      108, 129, 112, -1,
      130, 103, 83, -1,
      83, 103, 77, -1,
      83, 77, 84, -1,
      84, 77, 79, -1,
      101, 131, 103, -1,
      103, 131, 132, -1,
      103, 132, 77, -1,
      77, 132, 4, -1,
      77, 4, 78, -1,
      78, 4, 3, -1,
      78, 3, 111, -1,
      111, 3, 126, -1,
      111, 126, 116, -1,
      133, 5, 47, -1,
      47, 5, 134, -1,
      47, 134, 43, -1,
      43, 134, 135, -1,
      43, 135, 136, -1,
      133, 14, 5, -1,
      5, 14, 9, -1,
      5, 9, 3, -1,
      3, 9, 137, -1,
      137, 138, 3, -1,
      3, 138, 139, -1,
      3, 139, 109, -1,
      109, 139, 140, -1,
      109, 140, 11, -1,
      11, 140, 141, -1,
      11, 141, 9, -1,
      9, 141, 142, -1,
      9, 142, 137, -1,
      143, 144, 145, -1,
      145, 144, 139, -1,
      145, 139, 146, -1,
      146, 139, 138, -1,
      146, 138, 147, -1,
      147, 138, 148, -1,
      136, 149, 150, -1,
      150, 151, 136, -1,
      136, 151, 0, -1,
      136, 0, 43, -1,
      43, 0, 2, -1,
      43, 2, 38, -1,
      38, 2, 152, -1,
      11, 153, 109, -1,
      109, 153, 73, -1,
      109, 73, 86, -1,
      86, 73, 72, -1,
      86, 72, 88, -1,
      13, 59, 11, -1,
      11, 59, 56, -1,
      11, 56, 153, -1,
      153, 56, 58, -1,
      153, 58, 73, -1,
      73, 58, 154, -1,
      73, 154, 155, -1,
      155, 154, 156, -1,
      155, 156, 70, -1,
      70, 156, 157, -1,
      70, 157, 69, -1,
      152, 150, 38, -1,
      38, 150, 149, -1,
      38, 149, 53, -1,
      53, 149, 8, -1,
      53, 8, 60, -1,
      60, 8, 7, -1,
      132, 158, 4, -1,
      4, 158, 159, -1,
      4, 159, 5, -1,
      5, 159, 160, -1,
      5, 160, 134, -1,
      134, 160, 90, -1,
      134, 90, 135, -1,
      135, 90, 92, -1,
      135, 92, 136, -1,
      136, 92, 161, -1,
      136, 161, 149, -1,
      149, 161, 162, -1,
      149, 162, 8, -1,
      8, 162, 64, -1,
      8, 64, 6, -1,
      6, 64, 62, -1,
      76, 71, 74, -1,
      74, 71, 73, -1,
      74, 73, 163, -1,
      163, 73, 155, -1,
      163, 155, 164, -1,
      164, 155, 165, -1,
      165, 155, 70, -1,
      165, 70, 166, -1,
      166, 70, 68, -1,
      166, 68, 167, -1,
      167, 68, 66, -1,
      167, 66, 168, -1,
      168, 66, 65, -1,
      168, 65, 169, -1,
      169, 65, 63, -1,
      169, 63, 170, -1,
      92, 93, 171, -1,
      172, 170, 63, -1,
      63, 64, 172, -1,
      172, 64, 162, -1,
      172, 162, 171, -1,
      171, 162, 161, -1,
      171, 161, 92, -1,
      93, 95, 171, -1,
      171, 95, 98, -1,
      171, 98, 100, -1,
      130, 173, 103, -1,
      103, 173, 171, -1,
      103, 171, 102, -1,
      102, 171, 100, -1,
      130, 83, 173, -1,
      173, 83, 81, -1,
      173, 81, 174, -1,
      174, 81, 75, -1,
      75, 74, 174, -1,
      174, 74, 163, -1,
      174, 163, 164, -1,
      172, 174, 164, -1,
      164, 165, 172, -1,
      172, 165, 166, -1,
      172, 166, 167, -1,
      167, 168, 172, -1,
      172, 168, 169, -1,
      172, 169, 170, -1,
      175, 176, 173, -1,
      177, 174, 178, -1,
      178, 174, 179, -1,
      180, 181, 171, -1,
      171, 181, 182, -1,
      177, 183, 174, -1,
      174, 183, 184, -1,
      174, 184, 173, -1,
      173, 184, 185, -1,
      173, 185, 175, -1,
      182, 186, 171, -1,
      171, 186, 187, -1,
      171, 187, 172, -1,
      172, 187, 188, -1,
      172, 188, 189, -1,
      176, 190, 173, -1,
      173, 190, 191, -1,
      173, 191, 192, -1,
      192, 193, 173, -1,
      173, 193, 194, -1,
      173, 194, 171, -1,
      171, 194, 195, -1,
      171, 195, 180, -1,
      189, 196, 172, -1,
      172, 196, 197, -1,
      172, 197, 174, -1,
      174, 197, 198, -1,
      174, 198, 179, -1,
    ]
  }
}

Shape {
  appearance Appearance {
    material Material {
      diffuseColor 0.3490 0.3490 0.3490
      specularColor 0.0235 0.0235 0.0235
      ambientIntensity 0.2
      transparency 0.0000
      shininess 0.5
    }
  }
  geometry IndexedFaceSet {
    ccw TRUE
    solid FALSE
    coord DEF co Coordinate {
      point [
        -0.098339 0.165929 0.125984,
        -0.096908 0.169383 0.125984,
        -0.094633 0.152098 0.125984,
        -0.091667 0.149822 0.125984,
        -0.088213 0.148392 0.125984,
        -0.074382 0.172348 0.125984,
        -0.072107 0.169383 0.125984,
        -0.070676 0.165929 0.125984,
        -0.096908 0.155063 0.125984,
        -0.098339 0.158517 0.125984,
        -0.098827 0.162223 0.125984,
        -0.070188 0.162223 0.125984,
        -0.070676 0.158517 0.125984,
        -0.072107 0.155063 0.125984,
        -0.074382 0.152098 0.125984,
        -0.094633 0.172348 0.125984,
        -0.091667 0.174624 0.125984,
        -0.088213 0.176054 0.125984,
        -0.084507 0.176542 0.125984,
        -0.080802 0.176054 0.125984,
        -0.077348 0.174624 0.125984,
        -0.077348 0.149822 0.125984,
        -0.080802 0.148392 0.125984,
        -0.084507 0.147904 0.125984,
        -0.070188 0.162223 0.118110,
        -0.070676 0.165929 0.118110,
        -0.072107 0.169383 0.118110,
        -0.074382 0.172348 0.118110,
        -0.077348 0.174624 0.118110,
        -0.080802 0.176054 0.118110,
        -0.084507 0.176542 0.118110,
        -0.088213 0.176054 0.118110,
        -0.091667 0.174624 0.118110,
        -0.094633 0.172348 0.118110,
        -0.096908 0.169383 0.118110,
        -0.098339 0.165929 0.118110,
        -0.098827 0.162223 0.118110,
        -0.098339 0.158517 0.118110,
        -0.096908 0.155063 0.118110,
        -0.094633 0.152098 0.118110,
        -0.091667 0.149822 0.118110,
        -0.088213 0.148392 0.118110,
        -0.084507 0.147904 0.118110,
        -0.080802 0.148392 0.118110,
        -0.077348 0.149822 0.118110,
        -0.074382 0.152098 0.118110,
        -0.072107 0.155063 0.118110,
        -0.070676 0.158517 0.118110,
        -0.084507 0.162223 0.118110,
      ]
    }
    coordIndex [
      24, 11, 25, -1,
      25, 11, 7, -1,
      25, 7, 26, -1,
      26, 7, 6, -1,
      26, 6, 27, -1,
      27, 6, 5, -1,
      27, 5, 28, -1,
      28, 5, 20, -1,
      28, 20, 29, -1,
      29, 20, 19, -1,
      29, 19, 30, -1,
      30, 19, 18, -1,
      30, 18, 31, -1,
      31, 18, 17, -1,
      31, 17, 32, -1,
      32, 17, 16, -1,
      32, 16, 33, -1,
      33, 16, 15, -1,
      33, 15, 34, -1,
      34, 15, 1, -1,
      34, 1, 35, -1,
      35, 1, 0, -1,
      35, 0, 36, -1,
      36, 0, 10, -1,
      36, 10, 37, -1,
      37, 10, 9, -1,
      37, 9, 38, -1,
      38, 9, 8, -1,
      38, 8, 39, -1,
      39, 8, 2, -1,
      39, 2, 40, -1,
      40, 2, 3, -1,
      40, 3, 41, -1,
      41, 3, 4, -1,
      41, 4, 42, -1,
      42, 4, 23, -1,
      42, 23, 43, -1,
      43, 23, 22, -1,
      43, 22, 44, -1,
      44, 22, 21, -1,
      44, 21, 45, -1,
      45, 21, 14, -1,
      45, 14, 46, -1,
      46, 14, 13, -1,
      46, 13, 47, -1,
      47, 13, 12, -1,
      47, 12, 24, -1,
      24, 12, 11, -1,
      46, 47, 48, -1,
      48, 47, 24, -1,
      48, 24, 25, -1,
      43, 44, 48, -1,
      48, 44, 45, -1,
      48, 45, 46, -1,
      40, 41, 48, -1,
      48, 41, 42, -1,
      48, 42, 43, -1,
      37, 38, 48, -1,
      48, 38, 39, -1,
      48, 39, 40, -1,
      34, 35, 48, -1,
      48, 35, 36, -1,
      48, 36, 37, -1,
      31, 32, 48, -1,
      48, 32, 33, -1,
      48, 33, 34, -1,
      28, 29, 48, -1,
      48, 29, 30, -1,
      48, 30, 31, -1,
      25, 26, 48, -1,
      48, 26, 27, -1,
      48, 27, 28, -1,
    ]
  }
}

Shape {
  appearance Appearance {
    material Material {
      diffuseColor 0.6667 0.6667 0.6667
      specularColor 0.4667 0.4667 0.4667
      ambientIntensity 0.2
      transparency 0.0000
      shininess 0.5
    }
  }
  geometry IndexedFaceSet {
    ccw TRUE
    solid FALSE
    coord DEF co Coordinate {
      point [
        0.098425 -0.094488 0.000000,
        0.093144 -0.094488 0.000000,
        0.059535 -0.094488 0.000000,
        0.045131 -0.094488 0.000000,
        0.076940 -0.094488 0.000000,
        0.093144 -0.173228 0.000000,
        0.098425 -0.173228 0.000000,
        0.076940 -0.173228 0.000000,
        0.059535 -0.173228 0.000000,
        -0.098425 -0.039370 0.000000,
        -0.019685 -0.039370 0.000000,
        -0.098425 -0.010367 0.000000,
        -0.019685 0.009559 0.000000,
        -0.098425 0.009559 0.000000,
        -0.098425 0.039370 0.000000,
        -0.019685 0.039370 0.000000,
        -0.019685 -0.010367 0.000000,
        0.093144 0.094488 0.000000,
        0.098425 0.094488 0.000000,
        0.098425 0.173228 0.000000,
        0.093144 0.173228 0.000000,
        0.076940 0.173228 0.000000,
        0.059535 0.173228 0.000000,
        0.045131 0.173228 0.000000,
        0.019685 0.173228 0.000000,
        0.019685 0.094488 0.000000,
        0.019685 -0.094488 0.000000,
        0.019685 -0.173228 0.000000,
        0.045131 -0.173228 0.000000,
        0.045131 0.094488 0.000000,
        0.059535 0.094488 0.000000,
        0.076940 0.094488 0.000000,
        -0.019685 -0.039370 -0.007874,
        -0.019685 0.039370 -0.007874,
        -0.098425 -0.039370 -0.007874,
        -0.098425 0.039370 -0.007874,
        0.098425 0.094488 -0.007874,
        0.098425 0.173228 -0.007874,
        0.019685 0.094488 -0.007874,
        0.019685 0.173228 -0.007874,
        0.098425 -0.173228 -0.007874,
        0.098425 -0.094488 -0.007874,
        0.019685 -0.173228 -0.007874,
        0.019685 -0.094488 -0.007874,
      ]
    }
    coordIndex [
      16, 10, 32, -1,
      16, 32, 12, -1,
      12, 32, 33, -1,
      12, 33, 15, -1,
      34, 32, 9, -1,
      9, 32, 10, -1,
      9, 11, 34, -1,
      34, 11, 13, -1,
      34, 13, 35, -1,
      35, 13, 14, -1,
      33, 35, 15, -1,
      15, 35, 14, -1,
      34, 35, 32, -1,
      32, 35, 33, -1,
      36, 37, 18, -1,
      18, 37, 19, -1,
      36, 18, 17, -1,
      17, 31, 36, -1,
      36, 31, 30, -1,
      36, 30, 38, -1,
      38, 30, 29, -1,
      38, 29, 25, -1,
      39, 38, 24, -1,
      24, 38, 25, -1,
      20, 19, 37, -1,
      24, 23, 39, -1,
      39, 23, 22, -1,
      39, 22, 37, -1,
      37, 22, 21, -1,
      37, 21, 20, -1,
      38, 39, 36, -1,
      36, 39, 37, -1,
      40, 41, 6, -1,
      6, 41, 0, -1,
      40, 6, 5, -1,
      5, 7, 40, -1,
      40, 7, 8, -1,
      40, 8, 42, -1,
      42, 8, 28, -1,
      42, 28, 27, -1,
      43, 42, 26, -1,
      26, 42, 27, -1,
      1, 0, 41, -1,
      26, 3, 43, -1,
      43, 3, 2, -1,
      43, 2, 41, -1,
      41, 2, 4, -1,
      41, 4, 1, -1,
      42, 43, 40, -1,
      40, 43, 41, -1,
    ]
  }
}

Shape {
  appearance Appearance {
    material Material {
      diffuseColor 1.0000 1.0000 1.0000
      specularColor 0.8784 0.8784 0.8784
      ambientIntensity 0.2
      transparency 0.0000
      shininess 0.5
    }
  }
  geometry IndexedFaceSet {
    ccw TRUE
    solid FALSE
    coord DEF co Coordinate {
      point [
        0.085222 0.009439 0.000000,
        0.085222 -0.008086 0.000000,
        0.077780 -0.008086 0.000000,
        0.061456 -0.007066 0.000000,
        0.061456 -0.009226 0.000000,
        0.063554 -0.010088 0.000000,
        0.064349 0.009559 0.000000,
        0.063731 0.009516 0.000000,
        0.061456 0.008898 0.000000,
        0.061456 0.006258 0.000000,
        0.063673 0.007207 0.000000,
        0.061809 -0.007261 0.000000,
        0.066066 0.007518 0.000000,
        0.068004 0.007300 0.000000,
        0.069478 0.006769 0.000000,
        0.070840 0.005857 0.000000,
        0.072029 0.004545 0.000000,
        0.073459 -0.000614 0.000000,
        0.073259 -0.002745 0.000000,
        0.072725 -0.004438 0.000000,
        0.068344 -0.008120 0.000000,
        0.066508 -0.008326 0.000000,
        0.069779 -0.007592 0.000000,
        0.070987 -0.006778 0.000000,
        0.071911 -0.005803 0.000000,
        0.063895 -0.008036 0.000000,
        0.072840 0.003025 0.000000,
        0.073365 0.000918 0.000000,
        0.071206 -0.009578 0.000000,
        0.072789 -0.008567 0.000000,
        0.074268 -0.007011 0.000000,
        0.075317 -0.005139 0.000000,
        0.075061 0.004254 0.000000,
        0.073907 0.006094 0.000000,
        0.072130 0.007804 0.000000,
        0.070260 0.008880 0.000000,
        0.068065 0.009517 0.000000,
        0.067558 0.009559 0.000000,
        0.075909 -0.003055 0.000000,
        0.076100 -0.000775 0.000000,
        0.075816 0.002023 0.000000,
        0.066334 -0.010477 0.000000,
        0.066872 -0.010487 0.000000,
        0.068030 -0.010367 0.000000,
        0.069298 -0.010235 0.000000,
        0.065543 -0.010367 0.000000,
        0.011043 -0.010246 0.000000,
        0.008162 -0.010246 0.000000,
        0.013924 0.004517 0.000000,
        0.021167 -0.004725 0.000000,
        0.013924 -0.004725 0.000000,
        0.013035 -0.004725 0.000000,
        0.023046 -0.010246 0.000000,
        0.025927 -0.010246 0.000000,
        0.015844 0.009439 0.000000,
        0.018485 0.009439 0.000000,
        0.028350 -0.004851 0.000000,
        0.029479 -0.006612 0.000000,
        0.031099 -0.008163 0.000000,
        0.033154 -0.009358 0.000000,
        0.034812 0.009135 0.000000,
        0.032509 0.008326 0.000000,
        0.030366 0.006890 0.000000,
        0.030346 0.006872 0.000000,
        0.028954 0.005328 0.000000,
        0.028039 0.003635 0.000000,
        0.035423 -0.010034 0.000000,
        0.037858 -0.010246 0.000000,
        0.043211 -0.010246 0.000000,
        0.043211 0.009439 0.000000,
        0.037656 0.009439 0.000000,
        0.027510 0.001696 0.000000,
        0.027367 -0.000156 0.000000,
        0.027643 -0.002791 0.000000,
        0.066088 0.009679 0.000000,
        0.047532 0.009439 0.000000,
        0.047532 0.007278 0.000000,
        0.047052 -0.008086 0.000000,
        0.047052 -0.010246 0.000000,
        0.057615 -0.010246 0.000000,
        0.057615 0.009439 0.000000,
        0.054974 -0.001364 0.000000,
        0.054974 -0.008086 0.000000,
        0.048012 -0.001364 0.000000,
        0.048012 0.000796 0.000000,
        0.054974 0.000796 0.000000,
        0.054974 0.007278 0.000000,
        0.087863 -0.010246 0.000000,
        0.087863 0.009439 0.000000,
        0.077780 -0.010246 0.000000,
        0.008162 -0.010246 0.007874,
        0.015844 0.009439 0.007874,
        0.011043 -0.010246 0.007874,
        0.013035 -0.004725 0.007874,
        0.021167 -0.004725 0.007874,
        0.023046 -0.010246 0.007874,
        0.025927 -0.010246 0.007874,
        0.018485 0.009439 0.007874,
        0.020503 -0.002565 0.007874,
        0.013920 -0.002565 0.007874,
        0.017566 0.005657 0.007874,
        0.017376 0.006340 0.007874,
        0.017251 0.007038 0.007874,
        0.017187 0.007038 0.007874,
        0.017058 0.006343 0.007874,
        0.016883 0.005657 0.007874,
        0.020503 -0.002565 0.000000,
        0.013920 -0.002565 0.000000,
        0.017566 0.005657 0.000000,
        0.017376 0.006340 0.000000,
        0.017251 0.007038 0.000000,
        0.017187 0.007038 0.000000,
        0.017058 0.006343 0.000000,
        0.016883 0.005657 0.000000,
        0.037858 -0.010246 0.007874,
        0.043211 -0.010246 0.007874,
        0.043211 0.009439 0.007874,
        0.037656 0.009439 0.007874,
        0.027367 -0.000156 0.007874,
        0.027510 0.001696 0.007874,
        0.028039 0.003635 0.007874,
        0.028954 0.005328 0.007874,
        0.030346 0.006872 0.007874,
        0.030366 0.006890 0.007874,
        0.032509 0.008326 0.007874,
        0.034812 0.009135 0.007874,
        0.035423 -0.010034 0.007874,
        0.033154 -0.009358 0.007874,
        0.031099 -0.008163 0.007874,
        0.029479 -0.006612 0.007874,
        0.028350 -0.004851 0.007874,
        0.027643 -0.002791 0.007874,
        0.031319 0.004518 0.007874,
        0.032274 0.005533 0.007874,
        0.033712 0.006462 0.007874,
        0.035337 0.007030 0.007874,
        0.037667 0.007278 0.007874,
        0.040570 0.007278 0.007874,
        0.040570 -0.008086 0.007874,
        0.037776 -0.008086 0.007874,
        0.035699 -0.007893 0.007874,
        0.034043 -0.007376 0.007874,
        0.032700 -0.006578 0.007874,
        0.031596 -0.005488 0.007874,
        0.030766 -0.004131 0.007874,
        0.030189 -0.002280 0.007874,
        0.030008 -0.000213 0.007874,
        0.030175 0.001746 0.007874,
        0.030635 0.003304 0.007874,
        0.037667 0.007278 0.000000,
        0.040570 0.007278 0.000000,
        0.035337 0.007030 0.000000,
        0.033712 0.006462 0.000000,
        0.032274 0.005533 0.000000,
        0.031319 0.004518 0.000000,
        0.030635 0.003304 0.000000,
        0.030175 0.001746 0.000000,
        0.030008 -0.000213 0.000000,
        0.030189 -0.002280 0.000000,
        0.030766 -0.004131 0.000000,
        0.031596 -0.005488 0.000000,
        0.032700 -0.006578 0.000000,
        0.034043 -0.007376 0.000000,
        0.035699 -0.007893 0.000000,
        0.037776 -0.008086 0.000000,
        0.040570 -0.008086 0.000000,
        0.047052 -0.008086 0.007874,
        0.047052 -0.010246 0.007874,
        0.057615 -0.010246 0.007874,
        0.057615 0.009439 0.007874,
        0.047532 0.009439 0.007874,
        0.047532 0.007278 0.007874,
        0.054974 0.007278 0.007874,
        0.054974 0.000796 0.007874,
        0.048012 0.000796 0.007874,
        0.048012 -0.001364 0.007874,
        0.054974 -0.001364 0.007874,
        0.054974 -0.008086 0.007874,
        0.061456 -0.007066 0.007874,
        0.061456 -0.009226 0.007874,
        0.063554 -0.010088 0.007874,
        0.066872 -0.010487 0.007874,
        0.066334 -0.010477 0.007874,
        0.069298 -0.010235 0.007874,
        0.071206 -0.009578 0.007874,
        0.072789 -0.008567 0.007874,
        0.074268 -0.007011 0.007874,
        0.075317 -0.005139 0.007874,
        0.075909 -0.003055 0.007874,
        0.076100 -0.000775 0.007874,
        0.066088 0.009679 0.007874,
        0.068065 0.009517 0.007874,
        0.070260 0.008880 0.007874,
        0.072130 0.007804 0.007874,
        0.073907 0.006094 0.007874,
        0.075061 0.004254 0.007874,
        0.075816 0.002023 0.007874,
        0.063731 0.009516 0.007874,
        0.061456 0.008898 0.007874,
        0.061456 0.006258 0.007874,
        0.066066 0.007518 0.007874,
        0.063673 0.007207 0.007874,
        0.073459 -0.000614 0.007874,
        0.073365 0.000918 0.007874,
        0.072840 0.003025 0.007874,
        0.072029 0.004545 0.007874,
        0.070840 0.005857 0.007874,
        0.069478 0.006769 0.007874,
        0.068004 0.007300 0.007874,
        0.066508 -0.008326 0.007874,
        0.068344 -0.008120 0.007874,
        0.069779 -0.007592 0.007874,
        0.070987 -0.006778 0.007874,
        0.071911 -0.005803 0.007874,
        0.072725 -0.004438 0.007874,
        0.073259 -0.002745 0.007874,
        0.061809 -0.007261 0.007874,
        0.063895 -0.008036 0.007874,
        0.077780 -0.008086 0.007874,
        0.077780 -0.010246 0.007874,
        0.087863 -0.010246 0.007874,
        0.087863 0.009439 0.007874,
        0.085222 0.009439 0.007874,
        0.085222 -0.008086 0.007874,
      ]
    }
    coordIndex [
      90, 47, 91, -1,
      91, 47, 48, -1,
      91, 48, 54, -1,
      90, 92, 47, -1,
      47, 92, 46, -1,
      92, 93, 46, -1,
      46, 93, 51, -1,
      51, 93, 50, -1,
      50, 93, 94, -1,
      50, 94, 49, -1,
      94, 95, 49, -1,
      49, 95, 52, -1,
      95, 96, 52, -1,
      52, 96, 53, -1,
      96, 97, 53, -1,
      53, 97, 55, -1,
      97, 91, 55, -1,
      55, 91, 54, -1,
      98, 94, 99, -1,
      99, 94, 93, -1,
      100, 97, 98, -1,
      98, 97, 96, -1,
      98, 96, 94, -1,
      94, 96, 95, -1,
      100, 101, 97, -1,
      97, 101, 102, -1,
      97, 102, 91, -1,
      91, 102, 103, -1,
      91, 103, 104, -1,
      104, 105, 91, -1,
      91, 105, 99, -1,
      91, 99, 90, -1,
      90, 99, 93, -1,
      90, 93, 92, -1,
      98, 99, 106, -1,
      106, 99, 107, -1,
      100, 98, 108, -1,
      108, 98, 106, -1,
      100, 108, 109, -1,
      100, 109, 101, -1,
      101, 109, 110, -1,
      101, 110, 102, -1,
      103, 102, 111, -1,
      111, 102, 110, -1,
      103, 111, 112, -1,
      103, 112, 104, -1,
      104, 112, 113, -1,
      104, 113, 105, -1,
      99, 105, 107, -1,
      107, 105, 113, -1,
      114, 115, 67, -1,
      67, 115, 68, -1,
      115, 116, 68, -1,
      68, 116, 69, -1,
      116, 117, 69, -1,
      69, 117, 70, -1,
      118, 72, 71, -1,
      118, 71, 119, -1,
      119, 71, 65, -1,
      119, 65, 120, -1,
      120, 65, 64, -1,
      120, 64, 121, -1,
      121, 64, 63, -1,
      121, 63, 122, -1,
      122, 63, 62, -1,
      122, 62, 123, -1,
      123, 62, 61, -1,
      123, 61, 124, -1,
      124, 61, 60, -1,
      124, 60, 125, -1,
      125, 60, 70, -1,
      125, 70, 117, -1,
      114, 67, 66, -1,
      114, 66, 126, -1,
      126, 66, 59, -1,
      126, 59, 127, -1,
      127, 59, 58, -1,
      127, 58, 128, -1,
      128, 58, 57, -1,
      128, 57, 129, -1,
      129, 57, 56, -1,
      129, 56, 130, -1,
      130, 56, 73, -1,
      130, 73, 131, -1,
      131, 73, 72, -1,
      131, 72, 118, -1,
      120, 121, 132, -1,
      132, 121, 122, -1,
      132, 122, 133, -1,
      133, 122, 123, -1,
      133, 123, 134, -1,
      134, 123, 124, -1,
      134, 124, 135, -1,
      135, 124, 125, -1,
      135, 125, 136, -1,
      136, 125, 117, -1,
      136, 117, 137, -1,
      137, 117, 116, -1,
      137, 116, 138, -1,
      138, 116, 115, -1,
      138, 115, 139, -1,
      139, 115, 114, -1,
      139, 114, 140, -1,
      140, 114, 126, -1,
      140, 126, 141, -1,
      141, 126, 127, -1,
      141, 127, 142, -1,
      142, 127, 128, -1,
      142, 128, 143, -1,
      143, 128, 129, -1,
      143, 129, 144, -1,
      144, 129, 130, -1,
      144, 130, 145, -1,
      145, 130, 131, -1,
      145, 131, 146, -1,
      146, 131, 118, -1,
      146, 118, 147, -1,
      147, 118, 119, -1,
      147, 119, 148, -1,
      148, 119, 120, -1,
      148, 120, 132, -1,
      136, 137, 149, -1,
      149, 137, 150, -1,
      136, 149, 151, -1,
      136, 151, 135, -1,
      135, 151, 152, -1,
      135, 152, 134, -1,
      134, 152, 153, -1,
      134, 153, 133, -1,
      133, 153, 154, -1,
      133, 154, 132, -1,
      132, 154, 155, -1,
      132, 155, 148, -1,
      148, 155, 156, -1,
      148, 156, 147, -1,
      147, 156, 157, -1,
      147, 157, 146, -1,
      146, 157, 158, -1,
      146, 158, 145, -1,
      145, 158, 159, -1,
      145, 159, 144, -1,
      144, 159, 160, -1,
      144, 160, 143, -1,
      143, 160, 161, -1,
      143, 161, 142, -1,
      142, 161, 162, -1,
      142, 162, 141, -1,
      141, 162, 163, -1,
      141, 163, 140, -1,
      140, 163, 164, -1,
      140, 164, 139, -1,
      138, 139, 165, -1,
      165, 139, 164, -1,
      137, 138, 150, -1,
      150, 138, 165, -1,
      166, 167, 77, -1,
      77, 167, 78, -1,
      167, 168, 78, -1,
      78, 168, 79, -1,
      168, 169, 79, -1,
      79, 169, 80, -1,
      169, 170, 80, -1,
      80, 170, 75, -1,
      170, 171, 75, -1,
      75, 171, 76, -1,
      171, 172, 76, -1,
      76, 172, 86, -1,
      172, 173, 86, -1,
      86, 173, 85, -1,
      173, 174, 85, -1,
      85, 174, 84, -1,
      174, 175, 84, -1,
      84, 175, 83, -1,
      175, 176, 83, -1,
      83, 176, 81, -1,
      176, 177, 81, -1,
      81, 177, 82, -1,
      177, 166, 82, -1,
      82, 166, 77, -1,
      168, 167, 166, -1,
      166, 177, 168, -1,
      168, 177, 176, -1,
      168, 176, 169, -1,
      171, 170, 172, -1,
      172, 170, 169, -1,
      172, 169, 173, -1,
      173, 169, 176, -1,
      173, 176, 174, -1,
      174, 176, 175, -1,
      178, 179, 3, -1,
      3, 179, 4, -1,
      4, 179, 180, -1,
      181, 42, 41, -1,
      181, 41, 182, -1,
      182, 41, 45, -1,
      182, 45, 180, -1,
      180, 45, 5, -1,
      180, 5, 4, -1,
      42, 181, 43, -1,
      43, 181, 183, -1,
      43, 183, 44, -1,
      44, 183, 184, -1,
      44, 184, 28, -1,
      28, 184, 185, -1,
      28, 185, 29, -1,
      29, 185, 186, -1,
      29, 186, 30, -1,
      30, 186, 187, -1,
      30, 187, 31, -1,
      31, 187, 188, -1,
      31, 188, 38, -1,
      38, 188, 189, -1,
      38, 189, 39, -1,
      74, 37, 190, -1,
      190, 37, 191, -1,
      37, 36, 191, -1,
      191, 36, 35, -1,
      191, 35, 192, -1,
      192, 35, 34, -1,
      192, 34, 193, -1,
      193, 34, 33, -1,
      193, 33, 194, -1,
      194, 33, 32, -1,
      194, 32, 195, -1,
      195, 32, 40, -1,
      195, 40, 196, -1,
      196, 40, 39, -1,
      196, 39, 189, -1,
      74, 190, 6, -1,
      6, 190, 197, -1,
      6, 197, 7, -1,
      7, 197, 198, -1,
      7, 198, 8, -1,
      198, 199, 8, -1,
      8, 199, 9, -1,
      200, 12, 10, -1,
      200, 10, 201, -1,
      201, 10, 9, -1,
      201, 9, 199, -1,
      202, 17, 27, -1,
      202, 27, 203, -1,
      203, 27, 26, -1,
      203, 26, 204, -1,
      204, 26, 16, -1,
      204, 16, 205, -1,
      205, 16, 15, -1,
      205, 15, 206, -1,
      206, 15, 14, -1,
      206, 14, 207, -1,
      207, 14, 13, -1,
      207, 13, 208, -1,
      208, 13, 12, -1,
      208, 12, 200, -1,
      209, 21, 20, -1,
      209, 20, 210, -1,
      210, 20, 22, -1,
      210, 22, 211, -1,
      211, 22, 23, -1,
      211, 23, 212, -1,
      212, 23, 24, -1,
      212, 24, 213, -1,
      213, 24, 19, -1,
      213, 19, 214, -1,
      214, 19, 18, -1,
      214, 18, 215, -1,
      215, 18, 17, -1,
      215, 17, 202, -1,
      178, 3, 11, -1,
      178, 11, 216, -1,
      216, 11, 25, -1,
      216, 25, 217, -1,
      217, 25, 21, -1,
      217, 21, 209, -1,
      210, 181, 209, -1,
      209, 181, 182, -1,
      209, 182, 217, -1,
      217, 182, 180, -1,
      217, 180, 216, -1,
      216, 180, 179, -1,
      216, 179, 178, -1,
      199, 198, 201, -1,
      201, 198, 197, -1,
      201, 197, 200, -1,
      200, 197, 190, -1,
      200, 190, 208, -1,
      208, 190, 191, -1,
      208, 191, 207, -1,
      207, 191, 192, -1,
      207, 192, 206, -1,
      206, 192, 193, -1,
      206, 193, 205, -1,
      205, 193, 194, -1,
      205, 194, 204, -1,
      204, 194, 195, -1,
      204, 195, 203, -1,
      203, 195, 196, -1,
      203, 196, 202, -1,
      202, 196, 189, -1,
      202, 189, 215, -1,
      215, 189, 188, -1,
      215, 188, 214, -1,
      214, 188, 187, -1,
      214, 187, 213, -1,
      213, 187, 186, -1,
      213, 186, 212, -1,
      212, 186, 185, -1,
      212, 185, 211, -1,
      211, 185, 184, -1,
      211, 184, 210, -1,
      210, 184, 183, -1,
      210, 183, 181, -1,
      218, 219, 2, -1,
      2, 219, 89, -1,
      219, 220, 89, -1,
      89, 220, 87, -1,
      220, 221, 87, -1,
      87, 221, 88, -1,
      221, 222, 88, -1,
      88, 222, 0, -1,
      222, 223, 0, -1,
      0, 223, 1, -1,
      223, 218, 1, -1,
      1, 218, 2, -1,
      222, 221, 223, -1,
      223, 221, 220, -1,
      223, 220, 218, -1,
      218, 220, 219, -1,
    ]
  }
}

Shape {
  appearance Appearance {
    material Material {
      diffuseColor 0.2078 0.2078 0.2078
      specularColor 0.0157 0.0157 0.0157
      ambientIntensity 0.2
      transparency 0.0000
      shininess 0.5
    }
  }
  geometry IndexedFaceSet {
    ccw TRUE
    solid FALSE
    coord DEF co Coordinate {
      point [
        0.020503 -0.002565 0.000000,
        0.013920 -0.002565 0.000000,
        0.017566 0.005657 0.000000,
        0.017376 0.006340 0.000000,
        0.017251 0.007038 0.000000,
        0.017187 0.007038 0.000000,
        0.017058 0.006343 0.000000,
        0.016883 0.005657 0.000000,
        0.037667 0.007278 0.000000,
        0.040570 0.007278 0.000000,
        0.035337 0.007030 0.000000,
        0.033712 0.006462 0.000000,
        0.032274 0.005533 0.000000,
        0.031319 0.004518 0.000000,
        0.030635 0.003304 0.000000,
        0.030175 0.001746 0.000000,
        0.030008 -0.000213 0.000000,
        0.030189 -0.002280 0.000000,
        0.030766 -0.004131 0.000000,
        0.031596 -0.005488 0.000000,
        0.032700 -0.006578 0.000000,
        0.034043 -0.007376 0.000000,
        0.035699 -0.007893 0.000000,
        0.037776 -0.008086 0.000000,
        0.040570 -0.008086 0.000000,
      ]
    }
    coordIndex [
      0, 1, 2, -1,
      2, 1, 7, -1,
      2, 7, 3, -1,
      3, 7, 6, -1,
      3, 6, 4, -1,
      4, 6, 5, -1,
      9, 24, 8, -1,
      8, 24, 23, -1,
      8, 23, 22, -1,
      16, 15, 8, -1,
      8, 15, 14, -1,
      8, 14, 10, -1,
      22, 21, 8, -1,
      8, 21, 20, -1,
      8, 20, 19, -1,
      19, 18, 8, -1,
      8, 18, 17, -1,
      8, 17, 16, -1,
      13, 12, 14, -1,
      14, 12, 11, -1,
      14, 11, 10, -1,
    ]
  }
}
