#VRML V2.0 utf8

Shape {
  appearance Appearance {
    material Material {
      diffuseColor 0.9686 0.8784 0.6000
      specularColor 0.6784 0.6157 0.4196
      ambientIntensity 0.2
      transparency 0.0000
      shininess 0.5
    }
  }
  geometry IndexedFaceSet {
    ccw TRUE
    solid FALSE
    coord DEF co Coordinate {
      point [
        0.171654 0.078740 0.007874,
        0.196850 0.078740 0.007874,
        0.098425 0.151969 0.007874,
        0.196850 0.167323 0.007874,
        0.098425 0.167323 0.007874,
        0.196850 0.167323 0.000000,
        0.098425 0.167323 0.000000,
        0.098425 0.151969 0.000000,
        0.196850 0.078740 0.000000,
        0.171654 0.078740 0.000000,
        -0.196850 0.078740 0.007874,
        -0.171654 0.078740 0.007874,
        -0.196850 0.167323 0.007874,
        -0.098425 0.151969 0.007874,
        -0.098425 0.167323 0.007874,
        -0.196850 0.167323 0.000000,
        -0.196850 0.078740 0.000000,
        -0.171654 0.078740 0.000000,
        -0.098425 0.167323 0.000000,
        -0.098425 0.151969 0.000000,
        -0.098425 0.167323 0.053150,
        -0.098425 0.151969 0.053150,
        -0.171654 0.078740 0.053150,
        -0.196850 0.167323 0.053150,
        -0.196850 0.078740 0.053150,
        -0.171654 -0.078740 0.007874,
        -0.196850 -0.078740 0.007874,
        -0.098425 -0.151969 0.007874,
        -0.196850 -0.167323 0.007874,
        -0.098425 -0.167323 0.007874,
        -0.196850 -0.078740 0.000000,
        -0.196850 -0.167323 0.000000,
        -0.171654 -0.078740 0.000000,
        -0.098425 -0.151969 0.000000,
        -0.098425 -0.167323 0.000000,
        0.196850 0.078740 0.053150,
        0.171654 0.078740 0.053150,
        0.098425 0.151969 0.053150,
        0.196850 0.167323 0.053150,
        0.098425 0.167323 0.053150,
        0.196850 -0.078740 0.007874,
        0.171654 -0.078740 0.007874,
        0.196850 -0.167323 0.007874,
        0.098425 -0.151969 0.007874,
        0.098425 -0.167323 0.007874,
        0.196850 -0.167323 0.000000,
        0.196850 -0.078740 0.000000,
        0.098425 -0.151969 0.000000,
        0.098425 -0.167323 0.000000,
        0.171654 -0.078740 0.000000,
        -0.196850 -0.078740 0.053150,
        -0.171654 -0.078740 0.053150,
        -0.098425 -0.151969 0.053150,
        -0.098425 -0.167323 0.053150,
        -0.196850 -0.167323 0.053150,
        0.196850 -0.167323 0.053150,
        0.098425 -0.167323 0.053150,
        0.098425 -0.151969 0.053150,
        0.171654 -0.078740 0.053150,
        0.196850 -0.078740 0.053150,
      ]
    }
    coordIndex [
      0, 1, 2, -1,
      2, 1, 3, -1,
      2, 3, 4, -1,
      5, 6, 3, -1,
      3, 6, 4, -1,
      4, 6, 2, -1,
      2, 6, 7, -1,
      8, 9, 5, -1,
      5, 9, 7, -1,
      5, 7, 6, -1,
      2, 7, 0, -1,
      0, 7, 9, -1,
      8, 5, 1, -1,
      1, 5, 3, -1,
      0, 9, 1, -1,
      1, 9, 8, -1,
      10, 11, 12, -1,
      12, 11, 13, -1,
      12, 13, 14, -1,
      15, 16, 12, -1,
      12, 16, 10, -1,
      16, 17, 10, -1,
      10, 17, 11, -1,
      14, 18, 12, -1,
      12, 18, 15, -1,
      17, 16, 19, -1,
      19, 16, 15, -1,
      19, 15, 18, -1,
      17, 19, 11, -1,
      11, 19, 13, -1,
      19, 18, 13, -1,
      13, 18, 14, -1,
      14, 20, 13, -1,
      13, 20, 21, -1,
      13, 21, 11, -1,
      11, 21, 22, -1,
      23, 20, 12, -1,
      12, 20, 14, -1,
      24, 22, 23, -1,
      23, 22, 21, -1,
      23, 21, 20, -1,
      11, 22, 10, -1,
      10, 22, 24, -1,
      11, 10, 13, -1,
      13, 10, 12, -1,
      13, 12, 14, -1,
      23, 12, 24, -1,
      24, 12, 10, -1,
      25, 26, 27, -1,
      27, 26, 28, -1,
      27, 28, 29, -1,
      30, 31, 26, -1,
      26, 31, 28, -1,
      30, 32, 31, -1,
      31, 32, 33, -1,
      31, 33, 34, -1,
      31, 34, 28, -1,
      28, 34, 29, -1,
      27, 33, 25, -1,
      25, 33, 32, -1,
      29, 34, 27, -1,
      27, 34, 33, -1,
      25, 32, 26, -1,
      26, 32, 30, -1,
      1, 0, 3, -1,
      3, 0, 2, -1,
      3, 2, 4, -1,
      35, 36, 1, -1,
      1, 36, 0, -1,
      36, 35, 37, -1,
      37, 35, 38, -1,
      37, 38, 39, -1,
      36, 37, 0, -1,
      0, 37, 2, -1,
      37, 39, 2, -1,
      2, 39, 4, -1,
      4, 39, 3, -1,
      3, 39, 38, -1,
      35, 1, 38, -1,
      38, 1, 3, -1,
      40, 41, 42, -1,
      42, 41, 43, -1,
      42, 43, 44, -1,
      45, 46, 42, -1,
      42, 46, 40, -1,
      47, 48, 43, -1,
      43, 48, 44, -1,
      49, 46, 47, -1,
      47, 46, 45, -1,
      47, 45, 48, -1,
      46, 49, 40, -1,
      40, 49, 41, -1,
      49, 47, 41, -1,
      41, 47, 43, -1,
      44, 48, 42, -1,
      42, 48, 45, -1,
      26, 25, 28, -1,
      28, 25, 27, -1,
      28, 27, 29, -1,
      50, 51, 26, -1,
      26, 51, 25, -1,
      52, 53, 27, -1,
      27, 53, 29, -1,
      51, 52, 25, -1,
      25, 52, 27, -1,
      51, 50, 52, -1,
      52, 50, 54, -1,
      52, 54, 53, -1,
      29, 53, 28, -1,
      28, 53, 54, -1,
      50, 26, 54, -1,
      54, 26, 28, -1,
      55, 56, 42, -1,
      42, 56, 44, -1,
      43, 57, 41, -1,
      41, 57, 58, -1,
      41, 58, 40, -1,
      40, 58, 59, -1,
      44, 56, 43, -1,
      43, 56, 57, -1,
      59, 58, 55, -1,
      55, 58, 57, -1,
      55, 57, 56, -1,
      41, 40, 43, -1,
      43, 40, 42, -1,
      43, 42, 44, -1,
      55, 42, 59, -1,
      59, 42, 40, -1,
    ]
  }
}

Shape {
  appearance Appearance {
    material Material {
      diffuseColor 0.1098 0.1098 0.1098
      specularColor 0.0784 0.0784 0.0784
      ambientIntensity 0.2
      transparency 0.0000
      shininess 0.5
    }
  }
  geometry IndexedFaceSet {
    ccw TRUE
    solid FALSE
    coord DEF co Coordinate {
      point [
        0.196850 0.078740 0.007874,
        0.196850 0.167323 0.007874,
        -0.196850 0.078740 0.007874,
        -0.196850 0.167323 0.007874,
        -0.196850 0.167323 0.053150,
        -0.196850 0.078740 0.053150,
        -0.196850 -0.078740 0.007874,
        -0.196850 -0.167323 0.007874,
        0.196850 0.078740 0.053150,
        0.196850 0.167323 0.053150,
        0.196850 -0.078740 0.007874,
        0.196850 -0.167323 0.007874,
        -0.196850 -0.078740 0.053150,
        -0.196850 -0.167323 0.053150,
        0.196850 -0.167323 0.053150,
        0.196850 -0.078740 0.053150,
        0.196850 -0.019685 0.055118,
        0.196850 0.019685 0.055118,
        0.196850 0.196850 0.137795,
        0.196850 -0.196850 0.137795,
        0.196850 -0.196850 0.007874,
        0.196850 -0.178612 0.007874,
        0.196850 0.196850 0.007874,
        0.196850 0.019685 0.031496,
        0.196850 -0.019685 0.031496,
        -0.196850 0.019685 0.055118,
        -0.196850 -0.019685 0.055118,
        -0.196850 -0.196850 0.137795,
        -0.196850 0.196850 0.007874,
        -0.196850 0.196850 0.137795,
        -0.196850 -0.019685 0.031496,
        -0.196850 0.019685 0.031496,
        -0.196850 -0.178612 0.007874,
        -0.196850 -0.196850 0.007874,
        0.118110 -0.196850 0.031496,
        0.019685 -0.196850 0.055118,
        0.019685 -0.196850 0.031496,
        -0.118110 -0.196850 0.031496,
        -0.157480 -0.196850 0.031496,
        -0.019685 -0.196850 0.031496,
        -0.006565 -0.196850 0.007874,
        -0.157480 -0.196850 0.055118,
        -0.118110 -0.196850 0.055118,
        0.118110 -0.196850 0.055118,
        0.157480 -0.196850 0.055118,
        0.157480 -0.196850 0.031496,
        -0.019685 -0.196850 0.055118,
      ]
    }
    coordIndex [
      16, 17, 18, -1,
      19, 20, 21, -1,
      1, 22, 9, -1,
      9, 22, 18, -1,
      9, 18, 8, -1,
      8, 18, 17, -1,
      8, 17, 0, -1,
      0, 17, 23, -1,
      0, 23, 10, -1,
      10, 23, 24, -1,
      10, 24, 15, -1,
      15, 24, 16, -1,
      16, 18, 15, -1,
      15, 18, 19, -1,
      15, 19, 14, -1,
      14, 19, 21, -1,
      14, 21, 11, -1,
      25, 26, 27, -1,
      28, 3, 29, -1,
      29, 3, 4, -1,
      29, 4, 5, -1,
      13, 27, 12, -1,
      12, 27, 26, -1,
      12, 26, 6, -1,
      6, 26, 30, -1,
      6, 30, 2, -1,
      2, 30, 31, -1,
      2, 31, 5, -1,
      5, 31, 25, -1,
      5, 25, 29, -1,
      29, 25, 27, -1,
      13, 7, 27, -1,
      27, 7, 32, -1,
      27, 32, 33, -1,
      34, 35, 36, -1,
      37, 38, 33, -1,
      39, 40, 36, -1,
      36, 40, 20, -1,
      36, 20, 34, -1,
      33, 38, 27, -1,
      27, 38, 41, -1,
      27, 41, 42, -1,
      27, 43, 19, -1,
      19, 43, 44, -1,
      19, 44, 20, -1,
      20, 44, 45, -1,
      20, 45, 34, -1,
      34, 43, 35, -1,
      35, 43, 27, -1,
      35, 27, 46, -1,
      46, 27, 42, -1,
      46, 42, 39, -1,
      39, 42, 37, -1,
      39, 37, 40, -1,
      40, 37, 33, -1,
    ]
  }
}

Shape {
  appearance Appearance {
    material Material {
      diffuseColor 0.9686 0.8784 0.6000
      specularColor 0.6784 0.6157 0.4196
      ambientIntensity 0.2
      transparency 0.0000
      shininess 0.5
    }
  }
  geometry IndexedFaceSet {
    ccw TRUE
    solid FALSE
    coord DEF co Coordinate {
      point [
        0.019685 -0.196850 0.055118,
        0.019685 -0.196850 0.031496,
        -0.118110 -0.196850 0.031496,
        -0.157480 -0.196850 0.031496,
        -0.019685 -0.196850 0.031496,
        -0.157480 -0.196850 0.055118,
        -0.118110 -0.196850 0.055118,
        -0.019685 -0.196850 0.055118,
      ]
    }
    coordIndex [
      6, 5, 2, -1,
      2, 5, 3, -1,
      7, 4, 0, -1,
      0, 4, 1, -1,
    ]
  }
}

Shape {
  appearance Appearance {
    material Material {
      diffuseColor 0.1098 0.1098 0.1098
      specularColor 0.0784 0.0784 0.0784
      ambientIntensity 0.2
      transparency 0.0000
      shininess 0.5
    }
  }
  geometry IndexedFaceSet {
    ccw TRUE
    solid FALSE
    coord DEF co Coordinate {
      point [
        0.196850 0.196850 0.137795,
        0.196850 0.196850 0.007874,
        -0.196850 0.196850 0.007874,
        -0.196850 0.196850 0.137795,
        0.019685 0.196850 0.055118,
        -0.019685 0.196850 0.055118,
        -0.006565 0.196850 0.007874,
        0.118110 0.196850 0.031496,
        0.157480 0.196850 0.031496,
        0.157480 0.196850 0.055118,
        0.118110 0.196850 0.055118,
        0.019685 0.196850 0.031496,
        -0.157480 0.196850 0.031496,
        -0.157480 0.196850 0.055118,
        -0.118110 0.196850 0.055118,
        -0.118110 0.196850 0.031496,
        -0.019685 0.196850 0.031496,
      ]
    }
    coordIndex [
      0, 4, 5, -1,
      6, 7, 1, -1,
      1, 7, 8, -1,
      1, 8, 0, -1,
      8, 9, 0, -1,
      0, 9, 10, -1,
      0, 10, 4, -1,
      4, 10, 11, -1,
      12, 2, 13, -1,
      13, 2, 3, -1,
      13, 3, 14, -1,
      3, 0, 14, -1,
      14, 0, 5, -1,
      14, 5, 15, -1,
      15, 5, 16, -1,
      10, 7, 11, -1,
      11, 7, 6, -1,
      11, 6, 16, -1,
      16, 6, 2, -1,
      16, 2, 15, -1,
      15, 2, 12, -1,
    ]
  }
}

Shape {
  appearance Appearance {
    material Material {
      diffuseColor 0.9686 0.8784 0.6000
      specularColor 0.6784 0.6157 0.4196
      ambientIntensity 0.2
      transparency 0.0000
      shininess 0.5
    }
  }
  geometry IndexedFaceSet {
    ccw TRUE
    solid FALSE
    coord DEF co Coordinate {
      point [
        0.171654 0.078740 0.007874,
        0.196850 0.078740 0.007874,
        0.098425 0.151969 0.007874,
        0.196850 0.167323 0.007874,
        0.098425 0.167323 0.007874,
        -0.196850 0.078740 0.007874,
        -0.171654 0.078740 0.007874,
        -0.196850 0.167323 0.007874,
        -0.098425 0.151969 0.007874,
        -0.098425 0.167323 0.007874,
        -0.098425 0.167323 0.053150,
        -0.098425 0.151969 0.053150,
        -0.171654 0.078740 0.053150,
        -0.196850 0.167323 0.053150,
        -0.196850 0.078740 0.053150,
        -0.171654 -0.078740 0.007874,
        -0.196850 -0.078740 0.007874,
        -0.098425 -0.151969 0.007874,
        -0.196850 -0.167323 0.007874,
        -0.098425 -0.167323 0.007874,
        0.196850 0.078740 0.053150,
        0.171654 0.078740 0.053150,
        0.098425 0.151969 0.053150,
        0.196850 0.167323 0.053150,
        0.098425 0.167323 0.053150,
        0.196850 -0.078740 0.007874,
        0.171654 -0.078740 0.007874,
        0.196850 -0.167323 0.007874,
        0.098425 -0.151969 0.007874,
        0.098425 -0.167323 0.007874,
        -0.196850 -0.078740 0.053150,
        -0.171654 -0.078740 0.053150,
        -0.098425 -0.151969 0.053150,
        -0.098425 -0.167323 0.053150,
        -0.196850 -0.167323 0.053150,
        0.196850 -0.167323 0.053150,
        0.098425 -0.167323 0.053150,
        0.098425 -0.151969 0.053150,
        0.171654 -0.078740 0.053150,
        0.196850 -0.078740 0.053150,
        0.118110 0.196850 0.031496,
        0.157480 0.196850 0.031496,
        0.157480 0.196850 0.055118,
        0.118110 0.196850 0.055118,
        -0.157480 0.196850 0.031496,
        -0.157480 0.196850 0.055118,
        -0.118110 0.196850 0.055118,
        -0.118110 0.196850 0.031496,
      ]
    }
    coordIndex [
      41, 40, 42, -1,
      42, 40, 43, -1,
      45, 46, 44, -1,
      44, 46, 47, -1,
      20, 21, 23, -1,
      23, 21, 22, -1,
      23, 22, 24, -1,
      21, 20, 0, -1,
      0, 20, 1, -1,
      22, 21, 2, -1,
      2, 21, 0, -1,
      24, 22, 4, -1,
      4, 22, 2, -1,
      24, 4, 23, -1,
      23, 4, 3, -1,
      36, 35, 29, -1,
      29, 35, 27, -1,
      37, 28, 38, -1,
      38, 28, 26, -1,
      38, 26, 39, -1,
      39, 26, 25, -1,
      36, 29, 37, -1,
      37, 29, 28, -1,
      38, 39, 37, -1,
      37, 39, 35, -1,
      37, 35, 36, -1,
      10, 9, 11, -1,
      11, 9, 8, -1,
      11, 8, 12, -1,
      12, 8, 6, -1,
      10, 13, 9, -1,
      9, 13, 7, -1,
      12, 14, 11, -1,
      11, 14, 13, -1,
      11, 13, 10, -1,
      12, 6, 14, -1,
      14, 6, 5, -1,
      30, 31, 34, -1,
      34, 31, 32, -1,
      34, 32, 33, -1,
      33, 32, 19, -1,
      19, 32, 17, -1,
      33, 19, 34, -1,
      34, 19, 18, -1,
      31, 30, 15, -1,
      15, 30, 16, -1,
      32, 31, 17, -1,
      17, 31, 15, -1,
    ]
  }
}

Shape {
  appearance Appearance {
    material Material {
      diffuseColor 0.1098 0.1098 0.1098
      specularColor 0.0784 0.0784 0.0784
      ambientIntensity 0.2
      transparency 0.0000
      shininess 0.5
    }
  }
  geometry IndexedFaceSet {
    ccw TRUE
    solid FALSE
    coord DEF co Coordinate {
      point [
        -0.011126 -0.160968 0.007874,
        -0.011126 -0.176332 0.007874,
        -0.014030 -0.160968 0.007874,
        -0.013921 -0.176332 0.007874,
        -0.015998 -0.176139 0.007874,
        -0.021689 -0.168459 0.007874,
        -0.021522 -0.166499 0.007874,
        -0.021062 -0.164943 0.007874,
        -0.016359 -0.161215 0.007874,
        -0.017654 -0.175621 0.007874,
        -0.018997 -0.174824 0.007874,
        -0.020101 -0.173734 0.007874,
        -0.020931 -0.172376 0.007874,
        -0.021508 -0.170526 0.007874,
        -0.020378 -0.163728 0.007874,
        -0.019422 -0.162713 0.007874,
        -0.017985 -0.161784 0.007874,
        -0.031194 -0.170810 0.007874,
        -0.037777 -0.170810 0.007874,
        -0.034131 -0.162588 0.007874,
        -0.034814 -0.162588 0.007874,
        -0.034320 -0.161906 0.007874,
        -0.034639 -0.161904 0.007874,
        -0.034446 -0.161208 0.007874,
        -0.034510 -0.161208 0.007874,
      ]
    }
    coordIndex [
      0, 1, 2, -1,
      2, 1, 3, -1,
      2, 3, 4, -1,
      5, 6, 2, -1,
      2, 6, 7, -1,
      2, 7, 8, -1,
      4, 9, 2, -1,
      2, 9, 10, -1,
      2, 10, 11, -1,
      11, 12, 2, -1,
      2, 12, 13, -1,
      2, 13, 5, -1,
      14, 15, 7, -1,
      7, 15, 16, -1,
      7, 16, 8, -1,
      17, 18, 19, -1,
      19, 18, 20, -1,
      19, 20, 21, -1,
      21, 20, 22, -1,
      21, 22, 23, -1,
      23, 22, 24, -1,
    ]
  }
}

Shape {
  appearance Appearance {
    material Material {
      diffuseColor 0.4118 0.4118 0.4118
      specularColor 0.2039 0.2039 0.2039
      ambientIntensity 0.2
      transparency 0.0000
      shininess 0.5
    }
  }
  geometry IndexedFaceSet {
    ccw TRUE
    solid FALSE
    coord DEF co Coordinate {
      point [
        -0.084015 0.098425 0.129921,
        -0.080081 0.107920 0.129921,
        -0.118110 0.118110 0.129921,
        -0.078740 0.118110 0.129921,
        -0.080081 0.128300 0.129921,
        -0.107920 0.080081 0.129921,
        -0.098425 0.084015 0.129921,
        -0.090271 0.090271 0.129921,
        -0.137795 0.084015 0.129921,
        -0.128300 0.080081 0.129921,
        -0.118110 0.078740 0.129921,
        -0.156139 0.107920 0.129921,
        -0.152206 0.098425 0.129921,
        -0.145949 0.090271 0.129921,
        -0.152206 0.137795 0.129921,
        -0.156139 0.128300 0.129921,
        -0.157480 0.118110 0.129921,
        -0.128300 0.156139 0.129921,
        -0.137795 0.152206 0.129921,
        -0.145949 0.145949 0.129921,
        -0.098425 0.152206 0.129921,
        -0.107920 0.156139 0.129921,
        -0.118110 0.157480 0.129921,
        -0.084015 0.137795 0.129921,
        -0.090271 0.145949 0.129921,
      ]
    }
    coordIndex [
      0, 1, 2, -1,
      2, 1, 3, -1,
      2, 3, 4, -1,
      5, 6, 2, -1,
      2, 6, 7, -1,
      2, 7, 0, -1,
      8, 9, 2, -1,
      2, 9, 10, -1,
      2, 10, 5, -1,
      11, 12, 2, -1,
      2, 12, 13, -1,
      2, 13, 8, -1,
      14, 15, 2, -1,
      2, 15, 16, -1,
      2, 16, 11, -1,
      17, 18, 2, -1,
      2, 18, 19, -1,
      2, 19, 14, -1,
      20, 21, 2, -1,
      2, 21, 22, -1,
      2, 22, 17, -1,
      4, 23, 2, -1,
      2, 23, 24, -1,
      2, 24, 20, -1,
    ]
  }
}

Shape {
  appearance Appearance {
    material Material {
      diffuseColor 0.7922 0.8196 0.9333
      specularColor 0.3961 0.4118 0.4667
      ambientIntensity 0.2
      transparency 0.0000
      shininess 0.5
    }
  }
  geometry IndexedFaceSet {
    ccw TRUE
    solid FALSE
    coord DEF co Coordinate {
      point [
        -0.013921 -0.176332 0.007874,
        -0.015998 -0.176139 0.007874,
        -0.021689 -0.168459 0.007874,
        -0.017654 -0.175621 0.007874,
        -0.018997 -0.174824 0.007874,
        -0.020101 -0.173734 0.007874,
        -0.020931 -0.172376 0.007874,
        -0.021508 -0.170526 0.007874,
        -0.013921 -0.176332 0.011811,
        -0.015998 -0.176139 0.011811,
        -0.017654 -0.175621 0.011811,
        -0.018997 -0.174824 0.011811,
        -0.020101 -0.173734 0.011811,
        -0.020931 -0.172376 0.011811,
        -0.021508 -0.170526 0.011811,
        -0.021689 -0.168459 0.011811,
      ]
    }
    coordIndex [
      0, 8, 9, -1,
      0, 9, 1, -1,
      1, 9, 10, -1,
      1, 10, 3, -1,
      3, 10, 11, -1,
      3, 11, 4, -1,
      4, 11, 12, -1,
      4, 12, 5, -1,
      5, 12, 13, -1,
      5, 13, 6, -1,
      6, 13, 14, -1,
      6, 14, 7, -1,
      7, 14, 15, -1,
      7, 15, 2, -1,
    ]
  }
}

Shape {
  appearance Appearance {
    material Material {
      diffuseColor 0.9686 0.8784 0.6000
      specularColor 0.6784 0.6157 0.4196
      ambientIntensity 0.2
      transparency 0.0000
      shininess 0.5
    }
  }
  geometry IndexedFaceSet {
    ccw TRUE
    solid FALSE
    coord DEF co Coordinate {
      point [
        -0.011126 -0.160968 0.007874,
        -0.011126 -0.176332 0.007874,
        -0.014030 -0.160968 0.007874,
        -0.013921 -0.176332 0.007874,
        -0.021689 -0.168459 0.007874,
        -0.021522 -0.166499 0.007874,
        -0.021062 -0.164943 0.007874,
        -0.016359 -0.161215 0.007874,
        -0.020378 -0.163728 0.007874,
        -0.019422 -0.162713 0.007874,
        -0.017985 -0.161784 0.007874,
        -0.034131 -0.162588 0.007874,
        -0.034814 -0.162588 0.007874,
        -0.034320 -0.161906 0.007874,
        -0.034639 -0.161904 0.007874,
        -0.034446 -0.161208 0.007874,
        -0.034510 -0.161208 0.007874,
        -0.013921 -0.176332 0.011811,
        -0.021689 -0.168459 0.011811,
        -0.021522 -0.166499 0.011811,
        -0.021062 -0.164943 0.011811,
        -0.020378 -0.163728 0.011811,
        -0.019422 -0.162713 0.011811,
        -0.017985 -0.161784 0.011811,
        -0.016359 -0.161215 0.011811,
        -0.014030 -0.160968 0.011811,
        -0.011126 -0.160968 0.011811,
        -0.011126 -0.176332 0.011811,
        -0.034814 -0.162588 0.011811,
        -0.034639 -0.161904 0.011811,
        -0.034510 -0.161208 0.011811,
        -0.034446 -0.161208 0.011811,
        -0.034320 -0.161906 0.011811,
        -0.034131 -0.162588 0.011811,
      ]
    }
    coordIndex [
      4, 18, 19, -1,
      4, 19, 5, -1,
      5, 19, 20, -1,
      5, 20, 6, -1,
      6, 20, 21, -1,
      6, 21, 8, -1,
      8, 21, 22, -1,
      8, 22, 9, -1,
      9, 22, 23, -1,
      9, 23, 10, -1,
      10, 23, 24, -1,
      10, 24, 7, -1,
      7, 24, 25, -1,
      7, 25, 2, -1,
      26, 0, 25, -1,
      25, 0, 2, -1,
      1, 0, 27, -1,
      27, 0, 26, -1,
      17, 3, 27, -1,
      27, 3, 1, -1,
      12, 28, 29, -1,
      12, 29, 14, -1,
      14, 29, 30, -1,
      14, 30, 16, -1,
      31, 15, 30, -1,
      30, 15, 16, -1,
      15, 31, 32, -1,
      15, 32, 13, -1,
      13, 32, 33, -1,
      13, 33, 11, -1,
    ]
  }
}

Shape {
  appearance Appearance {
    material Material {
      diffuseColor 0.7922 0.8196 0.9333
      specularColor 0.3961 0.4118 0.4667
      ambientIntensity 0.2
      transparency 0.0000
      shininess 0.5
    }
  }
  geometry IndexedFaceSet {
    ccw TRUE
    solid FALSE
    coord DEF co Coordinate {
      point [
        -0.031194 -0.170810 0.007874,
        -0.034131 -0.162588 0.007874,
        -0.034131 -0.162588 0.011811,
        -0.031194 -0.170810 0.011811,
      ]
    }
    coordIndex [
      3, 0, 2, -1,
      2, 0, 1, -1,
    ]
  }
}

Shape {
  appearance Appearance {
    material Material {
      diffuseColor 0.9686 0.8784 0.6000
      specularColor 0.6784 0.6157 0.4196
      ambientIntensity 0.2
      transparency 0.0000
      shininess 0.5
    }
  }
  geometry IndexedFaceSet {
    ccw TRUE
    solid FALSE
    coord DEF co Coordinate {
      point [
        -0.031194 -0.170810 0.007874,
        -0.037777 -0.170810 0.007874,
        -0.034814 -0.162588 0.007874,
        -0.034814 -0.162588 0.011811,
        -0.031194 -0.170810 0.011811,
        -0.037777 -0.170810 0.011811,
      ]
    }
    coordIndex [
      5, 1, 4, -1,
      4, 1, 0, -1,
      2, 1, 3, -1,
      3, 1, 5, -1,
    ]
  }
}

Shape {
  appearance Appearance {
    material Material {
      diffuseColor 0.4118 0.4118 0.4118
      specularColor 0.2039 0.2039 0.2039
      ambientIntensity 0.2
      transparency 0.0000
      shininess 0.5
    }
  }
  geometry IndexedFaceSet {
    ccw TRUE
    solid FALSE
    coord DEF co Coordinate {
      point [
        -0.084015 0.098425 0.129921,
        -0.080081 0.107920 0.129921,
        -0.078740 0.118110 0.129921,
        -0.080081 0.128300 0.129921,
        -0.107920 0.080081 0.129921,
        -0.098425 0.084015 0.129921,
        -0.090271 0.090271 0.129921,
        -0.137795 0.084015 0.129921,
        -0.128300 0.080081 0.129921,
        -0.118110 0.078740 0.129921,
        -0.156139 0.107920 0.129921,
        -0.152206 0.098425 0.129921,
        -0.145949 0.090271 0.129921,
        -0.152206 0.137795 0.129921,
        -0.156139 0.128300 0.129921,
        -0.157480 0.118110 0.129921,
        -0.128300 0.156139 0.129921,
        -0.137795 0.152206 0.129921,
        -0.145949 0.145949 0.129921,
        -0.098425 0.152206 0.129921,
        -0.107920 0.156139 0.129921,
        -0.118110 0.157480 0.129921,
        -0.084015 0.137795 0.129921,
        -0.090271 0.145949 0.129921,
        -0.078740 0.118110 0.137795,
        -0.080081 0.128300 0.137795,
        -0.084015 0.137795 0.137795,
        -0.090271 0.145949 0.137795,
        -0.098425 0.152206 0.137795,
        -0.107920 0.156139 0.137795,
        -0.118110 0.157480 0.137795,
        -0.128300 0.156139 0.137795,
        -0.137795 0.152206 0.137795,
        -0.145949 0.145949 0.137795,
        -0.152206 0.137795 0.137795,
        -0.156139 0.128300 0.137795,
        -0.157480 0.118110 0.137795,
        -0.156139 0.107920 0.137795,
        -0.152206 0.098425 0.137795,
        -0.145949 0.090271 0.137795,
        -0.137795 0.084015 0.137795,
        -0.128300 0.080081 0.137795,
        -0.118110 0.078740 0.137795,
        -0.107920 0.080081 0.137795,
        -0.098425 0.084015 0.137795,
        -0.090271 0.090271 0.137795,
        -0.084015 0.098425 0.137795,
        -0.080081 0.107920 0.137795,
      ]
    }
    coordIndex [
      2, 24, 3, -1,
      3, 24, 25, -1,
      3, 25, 22, -1,
      22, 25, 26, -1,
      22, 26, 23, -1,
      23, 26, 27, -1,
      23, 27, 19, -1,
      19, 27, 28, -1,
      19, 28, 20, -1,
      20, 28, 29, -1,
      20, 29, 21, -1,
      21, 29, 30, -1,
      21, 30, 16, -1,
      16, 30, 31, -1,
      16, 31, 17, -1,
      17, 31, 32, -1,
      17, 32, 18, -1,
      18, 32, 33, -1,
      18, 33, 13, -1,
      13, 33, 34, -1,
      13, 34, 14, -1,
      14, 34, 35, -1,
      14, 35, 15, -1,
      15, 35, 36, -1,
      15, 36, 10, -1,
      10, 36, 37, -1,
      10, 37, 11, -1,
      11, 37, 38, -1,
      11, 38, 12, -1,
      12, 38, 39, -1,
      12, 39, 7, -1,
      7, 39, 40, -1,
      7, 40, 8, -1,
      8, 40, 41, -1,
      8, 41, 9, -1,
      9, 41, 42, -1,
      9, 42, 4, -1,
      4, 42, 43, -1,
      4, 43, 5, -1,
      5, 43, 44, -1,
      5, 44, 6, -1,
      6, 44, 45, -1,
      6, 45, 0, -1,
      0, 45, 46, -1,
      0, 46, 1, -1,
      1, 46, 47, -1,
      1, 47, 2, -1,
      2, 47, 24, -1,
    ]
  }
}

Shape {
  appearance Appearance {
    material Material {
      diffuseColor 0.7922 0.8196 0.9333
      specularColor 0.3961 0.4118 0.4667
      ambientIntensity 0.2
      transparency 0.0000
      shininess 0.5
    }
  }
  geometry IndexedFaceSet {
    ccw TRUE
    solid FALSE
    coord DEF co Coordinate {
      point [
        0.033525 -0.158807 0.011811,
        0.036166 -0.158807 0.011811,
        0.033525 -0.176332 0.011811,
        0.036166 -0.178493 0.011811,
        0.026083 -0.176332 0.011811,
        0.026083 -0.178493 0.011811,
        0.016648 -0.176366 0.011811,
        0.015175 -0.178732 0.011811,
        0.014811 -0.176572 0.011811,
        0.014637 -0.178723 0.011811,
        0.012198 -0.176282 0.011811,
        0.011857 -0.178333 0.011811,
        0.010112 -0.175507 0.011811,
        0.009759 -0.177472 0.011811,
        0.009759 -0.175311 0.011811,
        0.009759 -0.161988 0.011811,
        0.009759 -0.159348 0.011811,
        0.011976 -0.161039 0.011811,
        0.012035 -0.158730 0.011811,
        0.014369 -0.160728 0.011811,
        0.014391 -0.158567 0.011811,
        0.016307 -0.160946 0.011811,
        0.016369 -0.158729 0.011811,
        0.017781 -0.161477 0.011811,
        0.018563 -0.159366 0.011811,
        0.019143 -0.162389 0.011811,
        0.020433 -0.160443 0.011811,
        0.020332 -0.163701 0.011811,
        0.022210 -0.162152 0.011811,
        0.021143 -0.165221 0.011811,
        0.023364 -0.163992 0.011811,
        0.021668 -0.167328 0.011811,
        0.024119 -0.166222 0.011811,
        0.021762 -0.168860 0.011811,
        0.024403 -0.169021 0.011811,
        0.021563 -0.170991 0.011811,
        0.024212 -0.171301 0.011811,
        0.021028 -0.172684 0.011811,
        0.023620 -0.173385 0.011811,
        0.020214 -0.174049 0.011811,
        0.022571 -0.175256 0.011811,
        0.019290 -0.175024 0.011811,
        0.021093 -0.176813 0.011811,
        0.018082 -0.175838 0.011811,
        0.019509 -0.177824 0.011811,
        0.017601 -0.178481 0.011811,
      ]
    }
    coordIndex [
      0, 1, 2, -1,
      2, 1, 3, -1,
      2, 3, 4, -1,
      4, 3, 5, -1,
      6, 7, 8, -1,
      8, 7, 9, -1,
      8, 9, 10, -1,
      10, 9, 11, -1,
      10, 11, 12, -1,
      12, 11, 13, -1,
      12, 13, 14, -1,
      15, 16, 17, -1,
      17, 16, 18, -1,
      17, 18, 19, -1,
      19, 18, 20, -1,
      19, 20, 21, -1,
      21, 20, 22, -1,
      21, 22, 23, -1,
      23, 22, 24, -1,
      23, 24, 25, -1,
      25, 24, 26, -1,
      25, 26, 27, -1,
      27, 26, 28, -1,
      27, 28, 29, -1,
      29, 28, 30, -1,
      29, 30, 31, -1,
      31, 30, 32, -1,
      31, 32, 33, -1,
      33, 32, 34, -1,
      33, 34, 35, -1,
      35, 34, 36, -1,
      35, 36, 37, -1,
      37, 36, 38, -1,
      37, 38, 39, -1,
      39, 38, 40, -1,
      39, 40, 41, -1,
      41, 40, 42, -1,
      41, 42, 43, -1,
      43, 42, 44, -1,
      43, 44, 6, -1,
      6, 44, 45, -1,
      6, 45, 7, -1,
    ]
  }
}

Shape {
  appearance Appearance {
    material Material {
      diffuseColor 0.9686 0.8784 0.6000
      specularColor 0.6784 0.6157 0.4196
      ambientIntensity 0.2
      transparency 0.0000
      shininess 0.5
    }
  }
  geometry IndexedFaceSet {
    ccw TRUE
    solid FALSE
    coord DEF co Coordinate {
      point [
        0.005918 -0.178493 0.011811,
        -0.004645 -0.178493 0.011811,
        -0.004645 -0.176332 0.011811,
        0.003277 -0.176332 0.011811,
        0.003277 -0.169610 0.011811,
        0.005918 -0.158807 0.011811,
        -0.004165 -0.160968 0.011811,
        -0.004165 -0.158807 0.011811,
        0.003277 -0.160968 0.011811,
        0.003277 -0.167450 0.011811,
        -0.003685 -0.167450 0.011811,
        -0.003685 -0.169610 0.011811,
      ]
    }
    coordIndex [
      0, 1, 2, -1,
      2, 3, 0, -1,
      0, 3, 4, -1,
      0, 4, 5, -1,
      6, 7, 8, -1,
      8, 7, 5, -1,
      8, 5, 9, -1,
      9, 5, 4, -1,
      9, 4, 10, -1,
      10, 4, 11, -1,
    ]
  }
}

Shape {
  appearance Appearance {
    material Material {
      diffuseColor 0.7922 0.8196 0.9333
      specularColor 0.3961 0.4118 0.4667
      ambientIntensity 0.2
      transparency 0.0000
      shininess 0.5
    }
  }
  geometry IndexedFaceSet {
    ccw TRUE
    solid FALSE
    coord DEF co Coordinate {
      point [
        -0.013921 -0.176332 0.011811,
        -0.015998 -0.176139 0.011811,
        -0.017654 -0.175621 0.011811,
        -0.018997 -0.174824 0.011811,
        -0.020101 -0.173734 0.011811,
        -0.020931 -0.172376 0.011811,
        -0.021508 -0.170526 0.011811,
        -0.021689 -0.168459 0.011811,
        -0.021522 -0.166499 0.011811,
        -0.021062 -0.164943 0.011811,
        -0.020378 -0.163728 0.011811,
        -0.019422 -0.162713 0.011811,
        -0.017985 -0.161784 0.011811,
        -0.016359 -0.161215 0.011811,
        -0.014030 -0.160968 0.011811,
        -0.011126 -0.160968 0.011811,
        -0.011126 -0.176332 0.011811,
        -0.023658 -0.164611 0.011811,
        -0.022743 -0.162918 0.011811,
        -0.021351 -0.161374 0.011811,
        -0.021331 -0.161356 0.011811,
        -0.019188 -0.159920 0.011811,
        -0.016885 -0.159111 0.011811,
        -0.014041 -0.158807 0.011811,
        -0.008486 -0.158807 0.011811,
        -0.008486 -0.178493 0.011811,
        -0.013839 -0.178493 0.011811,
        -0.016274 -0.178280 0.011811,
        -0.018543 -0.177604 0.011811,
        -0.020598 -0.176409 0.011811,
        -0.022218 -0.174858 0.011811,
        -0.023347 -0.173097 0.011811,
        -0.024054 -0.171037 0.011811,
        -0.024330 -0.168402 0.011811,
        -0.024187 -0.166550 0.011811,
      ]
    }
    coordIndex [
      17, 18, 10, -1,
      10, 18, 19, -1,
      10, 19, 11, -1,
      11, 19, 20, -1,
      11, 20, 12, -1,
      12, 20, 21, -1,
      12, 21, 13, -1,
      13, 21, 22, -1,
      13, 22, 14, -1,
      14, 22, 23, -1,
      14, 23, 15, -1,
      15, 23, 24, -1,
      15, 24, 16, -1,
      16, 24, 25, -1,
      16, 25, 0, -1,
      0, 25, 26, -1,
      0, 26, 1, -1,
      1, 26, 27, -1,
      1, 27, 2, -1,
      2, 27, 28, -1,
      2, 28, 3, -1,
      3, 28, 29, -1,
      3, 29, 4, -1,
      4, 29, 30, -1,
      4, 30, 5, -1,
      5, 30, 31, -1,
      5, 31, 6, -1,
      6, 31, 32, -1,
      6, 32, 7, -1,
      7, 32, 33, -1,
      7, 33, 8, -1,
      8, 33, 34, -1,
      8, 34, 9, -1,
      9, 34, 17, -1,
      9, 17, 10, -1,
    ]
  }
}

Shape {
  appearance Appearance {
    material Material {
      diffuseColor 0.9686 0.8784 0.6000
      specularColor 0.6784 0.6157 0.4196
      ambientIntensity 0.2
      transparency 0.0000
      shininess 0.5
    }
  }
  geometry IndexedFaceSet {
    ccw TRUE
    solid FALSE
    coord DEF co Coordinate {
      point [
        -0.034814 -0.162588 0.011811,
        -0.034639 -0.161904 0.011811,
        -0.034510 -0.161208 0.011811,
        -0.034446 -0.161208 0.011811,
        -0.034320 -0.161906 0.011811,
        -0.034131 -0.162588 0.011811,
        -0.031194 -0.170810 0.011811,
        -0.037777 -0.170810 0.011811,
        -0.030530 -0.172971 0.011811,
        -0.038662 -0.172971 0.011811,
        -0.033212 -0.158807 0.011811,
        -0.025770 -0.178493 0.011811,
        -0.028651 -0.178493 0.011811,
        -0.035853 -0.158807 0.011811,
        -0.043535 -0.178493 0.011811,
        -0.040654 -0.178493 0.011811,
      ]
    }
    coordIndex [
      6, 8, 7, -1,
      7, 8, 9, -1,
      5, 10, 6, -1,
      6, 10, 11, -1,
      6, 11, 8, -1,
      8, 11, 12, -1,
      5, 4, 10, -1,
      10, 4, 3, -1,
      10, 3, 13, -1,
      13, 3, 2, -1,
      13, 2, 1, -1,
      1, 0, 13, -1,
      13, 0, 7, -1,
      13, 7, 14, -1,
      14, 7, 9, -1,
      14, 9, 15, -1,
    ]
  }
}

Shape {
  appearance Appearance {
    material Material {
      diffuseColor 0.1098 0.1098 0.1098
      specularColor 0.0784 0.0784 0.0784
      ambientIntensity 0.2
      transparency 0.0000
      shininess 0.5
    }
  }
  geometry IndexedFaceSet {
    ccw TRUE
    solid FALSE
    coord DEF co Coordinate {
      point [
        0.196850 0.196850 0.137795,
        0.196850 -0.196850 0.137795,
        -0.196850 -0.196850 0.137795,
        -0.196850 0.196850 0.137795,
        -0.078740 0.118110 0.137795,
        -0.080081 0.128300 0.137795,
        -0.084015 0.137795 0.137795,
        -0.090271 0.145949 0.137795,
        -0.098425 0.152206 0.137795,
        -0.107920 0.156139 0.137795,
        -0.118110 0.157480 0.137795,
        -0.128300 0.156139 0.137795,
        -0.137795 0.152206 0.137795,
        -0.145949 0.145949 0.137795,
        -0.152206 0.137795 0.137795,
        -0.156139 0.128300 0.137795,
        -0.157480 0.118110 0.137795,
        -0.156139 0.107920 0.137795,
        -0.152206 0.098425 0.137795,
        -0.145949 0.090271 0.137795,
        -0.137795 0.084015 0.137795,
        -0.128300 0.080081 0.137795,
        -0.118110 0.078740 0.137795,
        -0.107920 0.080081 0.137795,
        -0.098425 0.084015 0.137795,
        -0.090271 0.090271 0.137795,
        -0.084015 0.098425 0.137795,
        -0.080081 0.107920 0.137795,
      ]
    }
    coordIndex [
      26, 25, 1, -1,
      3, 15, 14, -1,
      22, 2, 23, -1,
      23, 2, 1, -1,
      23, 1, 24, -1,
      24, 1, 25, -1,
      22, 21, 2, -1,
      2, 21, 20, -1,
      2, 20, 19, -1,
      7, 6, 0, -1,
      19, 18, 2, -1,
      2, 18, 17, -1,
      2, 17, 3, -1,
      3, 17, 16, -1,
      3, 16, 15, -1,
      14, 13, 3, -1,
      3, 13, 12, -1,
      3, 12, 11, -1,
      6, 5, 0, -1,
      0, 5, 4, -1,
      0, 4, 1, -1,
      1, 4, 27, -1,
      1, 27, 26, -1,
      11, 10, 3, -1,
      3, 10, 9, -1,
      3, 9, 0, -1,
      0, 9, 8, -1,
      0, 8, 7, -1,
    ]
  }
}

Shape {
  appearance Appearance {
    material Material {
      diffuseColor 0.9686 0.8784 0.6000
      specularColor 0.6784 0.6157 0.4196
      ambientIntensity 0.2
      transparency 0.0000
      shininess 0.5
    }
  }
  geometry IndexedFaceSet {
    ccw TRUE
    solid FALSE
    coord DEF co Coordinate {
      point [
        0.196850 -0.019685 0.055118,
        0.196850 0.019685 0.055118,
        0.196850 0.019685 0.031496,
        0.196850 -0.019685 0.031496,
        -0.196850 0.019685 0.055118,
        -0.196850 -0.019685 0.055118,
        -0.196850 -0.019685 0.031496,
        -0.196850 0.019685 0.031496,
        0.118110 -0.196850 0.031496,
        0.118110 -0.196850 0.055118,
        0.157480 -0.196850 0.055118,
        0.157480 -0.196850 0.031496,
        0.019685 0.196850 0.055118,
        -0.019685 0.196850 0.055118,
        0.019685 0.196850 0.031496,
        -0.019685 0.196850 0.031496,
        0.033525 -0.158807 0.011811,
        0.033525 -0.176332 0.011811,
        0.026083 -0.176332 0.011811,
        0.026083 -0.178493 0.011811,
        0.026083 -0.178493 0.007874,
        0.026083 -0.176332 0.007874,
        0.033525 -0.176332 0.007874,
        0.033525 -0.158807 0.007874,
      ]
    }
    coordIndex [
      15, 13, 14, -1,
      14, 13, 12, -1,
      6, 5, 7, -1,
      7, 5, 4, -1,
      8, 11, 9, -1,
      9, 11, 10, -1,
      0, 3, 1, -1,
      1, 3, 2, -1,
      19, 20, 18, -1,
      18, 20, 21, -1,
      18, 21, 17, -1,
      17, 21, 22, -1,
      17, 22, 16, -1,
      16, 22, 23, -1,
    ]
  }
}

Shape {
  appearance Appearance {
    material Material {
      diffuseColor 0.7922 0.8196 0.9333
      specularColor 0.3961 0.4118 0.4667
      ambientIntensity 0.2
      transparency 0.0000
      shininess 0.5
    }
  }
  geometry IndexedFaceSet {
    ccw TRUE
    solid FALSE
    coord DEF co Coordinate {
      point [
        0.033525 -0.158807 0.011811,
        0.036166 -0.158807 0.011811,
        0.036166 -0.178493 0.011811,
        0.026083 -0.178493 0.011811,
        0.016648 -0.176366 0.011811,
        0.015175 -0.178732 0.011811,
        0.014811 -0.176572 0.011811,
        0.014637 -0.178723 0.011811,
        0.012198 -0.176282 0.011811,
        0.011857 -0.178333 0.011811,
        0.010112 -0.175507 0.011811,
        0.009759 -0.177472 0.011811,
        0.009759 -0.175311 0.011811,
        0.009759 -0.161988 0.011811,
        0.009759 -0.159348 0.011811,
        0.011976 -0.161039 0.011811,
        0.012035 -0.158730 0.011811,
        0.014369 -0.160728 0.011811,
        0.014391 -0.158567 0.011811,
        0.016307 -0.160946 0.011811,
        0.016369 -0.158729 0.011811,
        0.017781 -0.161477 0.011811,
        0.018563 -0.159366 0.011811,
        0.019143 -0.162389 0.011811,
        0.020433 -0.160443 0.011811,
        0.020332 -0.163701 0.011811,
        0.022210 -0.162152 0.011811,
        0.021143 -0.165221 0.011811,
        0.023364 -0.163992 0.011811,
        0.021668 -0.167328 0.011811,
        0.024119 -0.166222 0.011811,
        0.021762 -0.168860 0.011811,
        0.024403 -0.169021 0.011811,
        0.021563 -0.170991 0.011811,
        0.024212 -0.171301 0.011811,
        0.021028 -0.172684 0.011811,
        0.023620 -0.173385 0.011811,
        0.020214 -0.174049 0.011811,
        0.022571 -0.175256 0.011811,
        0.019290 -0.175024 0.011811,
        0.021093 -0.176813 0.011811,
        0.018082 -0.175838 0.011811,
        0.019509 -0.177824 0.011811,
        0.017601 -0.178481 0.011811,
        0.005918 -0.178493 0.011811,
        -0.004645 -0.178493 0.011811,
        -0.004645 -0.176332 0.011811,
        0.003277 -0.176332 0.011811,
        0.003277 -0.169610 0.011811,
        0.005918 -0.158807 0.011811,
        -0.004165 -0.160968 0.011811,
        -0.004165 -0.158807 0.011811,
        0.003277 -0.160968 0.011811,
        0.003277 -0.167450 0.011811,
        -0.003685 -0.167450 0.011811,
        -0.003685 -0.169610 0.011811,
        -0.023658 -0.164611 0.011811,
        -0.022743 -0.162918 0.011811,
        -0.021351 -0.161374 0.011811,
        -0.021331 -0.161356 0.011811,
        -0.019188 -0.159920 0.011811,
        -0.016885 -0.159111 0.011811,
        -0.014041 -0.158807 0.011811,
        -0.008486 -0.158807 0.011811,
        -0.008486 -0.178493 0.011811,
        -0.013839 -0.178493 0.011811,
        -0.016274 -0.178280 0.011811,
        -0.018543 -0.177604 0.011811,
        -0.020598 -0.176409 0.011811,
        -0.022218 -0.174858 0.011811,
        -0.023347 -0.173097 0.011811,
        -0.024054 -0.171037 0.011811,
        -0.024330 -0.168402 0.011811,
        -0.024187 -0.166550 0.011811,
        -0.030530 -0.172971 0.011811,
        -0.038662 -0.172971 0.011811,
        -0.033212 -0.158807 0.011811,
        -0.025770 -0.178493 0.011811,
        -0.028651 -0.178493 0.011811,
        -0.035853 -0.158807 0.011811,
        -0.043535 -0.178493 0.011811,
        -0.040654 -0.178493 0.011811,
        0.026083 -0.178493 0.007874,
        0.033525 -0.158807 0.007874,
        0.036166 -0.158807 0.007874,
        0.036166 -0.178493 0.007874,
        0.009759 -0.177472 0.007874,
        0.009759 -0.175311 0.007874,
        0.014811 -0.176572 0.007874,
        0.012198 -0.176282 0.007874,
        0.010112 -0.175507 0.007874,
        0.021762 -0.168860 0.007874,
        0.021563 -0.170991 0.007874,
        0.021028 -0.172684 0.007874,
        0.020214 -0.174049 0.007874,
        0.019290 -0.175024 0.007874,
        0.018082 -0.175838 0.007874,
        0.016648 -0.176366 0.007874,
        0.014369 -0.160728 0.007874,
        0.016307 -0.160946 0.007874,
        0.017781 -0.161477 0.007874,
        0.019143 -0.162389 0.007874,
        0.020332 -0.163701 0.007874,
        0.021143 -0.165221 0.007874,
        0.021668 -0.167328 0.007874,
        0.009759 -0.161988 0.007874,
        0.011976 -0.161039 0.007874,
        0.009759 -0.159348 0.007874,
        0.014391 -0.158567 0.007874,
        0.012035 -0.158730 0.007874,
        0.024403 -0.169021 0.007874,
        0.024119 -0.166222 0.007874,
        0.023364 -0.163992 0.007874,
        0.022210 -0.162152 0.007874,
        0.020433 -0.160443 0.007874,
        0.018563 -0.159366 0.007874,
        0.016369 -0.158729 0.007874,
        0.015175 -0.178732 0.007874,
        0.016333 -0.178612 0.007874,
        0.017601 -0.178481 0.007874,
        0.019509 -0.177824 0.007874,
        0.021093 -0.176813 0.007874,
        0.022571 -0.175256 0.007874,
        0.023620 -0.173385 0.007874,
        0.024212 -0.171301 0.007874,
        0.011857 -0.178333 0.007874,
        0.013846 -0.178612 0.007874,
        0.014637 -0.178723 0.007874,
        -0.004645 -0.178493 0.007874,
        -0.004645 -0.176332 0.007874,
        0.003277 -0.176332 0.007874,
        0.003277 -0.169610 0.007874,
        -0.003685 -0.169610 0.007874,
        -0.003685 -0.167450 0.007874,
        0.003277 -0.167450 0.007874,
        0.003277 -0.160968 0.007874,
        -0.004165 -0.160968 0.007874,
        -0.004165 -0.158807 0.007874,
        0.005918 -0.158807 0.007874,
        0.005918 -0.178493 0.007874,
        -0.008486 -0.178493 0.007874,
        -0.013839 -0.178493 0.007874,
        -0.024330 -0.168402 0.007874,
        -0.024054 -0.171037 0.007874,
        -0.023347 -0.173097 0.007874,
        -0.022218 -0.174858 0.007874,
        -0.020598 -0.176409 0.007874,
        -0.018543 -0.177604 0.007874,
        -0.016274 -0.178280 0.007874,
        -0.014041 -0.158807 0.007874,
        -0.016885 -0.159111 0.007874,
        -0.019188 -0.159920 0.007874,
        -0.021331 -0.161356 0.007874,
        -0.021351 -0.161374 0.007874,
        -0.022743 -0.162918 0.007874,
        -0.023658 -0.164611 0.007874,
        -0.024187 -0.166550 0.007874,
        -0.008486 -0.158807 0.007874,
        -0.043535 -0.178493 0.007874,
        -0.035853 -0.158807 0.007874,
        -0.033212 -0.158807 0.007874,
        -0.025770 -0.178493 0.007874,
        -0.028651 -0.178493 0.007874,
        -0.030530 -0.172971 0.007874,
        -0.038662 -0.172971 0.007874,
        -0.040654 -0.178493 0.007874,
      ]
    }
    coordIndex [
      0, 83, 1, -1,
      1, 83, 84, -1,
      1, 84, 2, -1,
      2, 84, 85, -1,
      3, 2, 82, -1,
      82, 2, 85, -1,
      11, 86, 12, -1,
      12, 86, 87, -1,
      88, 6, 8, -1,
      88, 8, 89, -1,
      89, 8, 10, -1,
      89, 10, 90, -1,
      90, 10, 12, -1,
      90, 12, 87, -1,
      91, 31, 33, -1,
      91, 33, 92, -1,
      92, 33, 35, -1,
      92, 35, 93, -1,
      93, 35, 37, -1,
      93, 37, 94, -1,
      94, 37, 39, -1,
      94, 39, 95, -1,
      95, 39, 41, -1,
      95, 41, 96, -1,
      96, 41, 4, -1,
      96, 4, 97, -1,
      97, 4, 6, -1,
      97, 6, 88, -1,
      98, 17, 19, -1,
      98, 19, 99, -1,
      99, 19, 21, -1,
      99, 21, 100, -1,
      100, 21, 23, -1,
      100, 23, 101, -1,
      101, 23, 25, -1,
      101, 25, 102, -1,
      102, 25, 27, -1,
      102, 27, 103, -1,
      103, 27, 29, -1,
      103, 29, 104, -1,
      104, 29, 31, -1,
      104, 31, 91, -1,
      105, 13, 15, -1,
      105, 15, 106, -1,
      106, 15, 17, -1,
      106, 17, 98, -1,
      13, 105, 14, -1,
      14, 105, 107, -1,
      108, 18, 16, -1,
      108, 16, 109, -1,
      109, 16, 14, -1,
      109, 14, 107, -1,
      110, 32, 30, -1,
      110, 30, 111, -1,
      111, 30, 28, -1,
      111, 28, 112, -1,
      112, 28, 26, -1,
      112, 26, 113, -1,
      113, 26, 24, -1,
      113, 24, 114, -1,
      114, 24, 22, -1,
      114, 22, 115, -1,
      115, 22, 20, -1,
      115, 20, 116, -1,
      116, 20, 18, -1,
      116, 18, 108, -1,
      117, 5, 118, -1,
      118, 5, 43, -1,
      118, 43, 119, -1,
      119, 43, 42, -1,
      119, 42, 120, -1,
      120, 42, 40, -1,
      120, 40, 121, -1,
      121, 40, 38, -1,
      121, 38, 122, -1,
      122, 38, 36, -1,
      122, 36, 123, -1,
      123, 36, 34, -1,
      123, 34, 124, -1,
      124, 34, 32, -1,
      124, 32, 110, -1,
      125, 86, 9, -1,
      9, 86, 11, -1,
      125, 9, 126, -1,
      126, 9, 7, -1,
      126, 7, 127, -1,
      127, 7, 5, -1,
      127, 5, 117, -1,
      45, 128, 46, -1,
      46, 128, 129, -1,
      46, 129, 47, -1,
      47, 129, 130, -1,
      47, 130, 48, -1,
      48, 130, 131, -1,
      48, 131, 55, -1,
      55, 131, 132, -1,
      55, 132, 54, -1,
      54, 132, 133, -1,
      54, 133, 53, -1,
      53, 133, 134, -1,
      53, 134, 52, -1,
      52, 134, 135, -1,
      52, 135, 50, -1,
      50, 135, 136, -1,
      50, 136, 51, -1,
      51, 136, 137, -1,
      51, 137, 49, -1,
      49, 137, 138, -1,
      49, 138, 44, -1,
      44, 138, 139, -1,
      45, 44, 128, -1,
      128, 44, 139, -1,
      64, 140, 65, -1,
      65, 140, 141, -1,
      142, 72, 71, -1,
      142, 71, 143, -1,
      143, 71, 70, -1,
      143, 70, 144, -1,
      144, 70, 69, -1,
      144, 69, 145, -1,
      145, 69, 68, -1,
      145, 68, 146, -1,
      146, 68, 67, -1,
      146, 67, 147, -1,
      147, 67, 66, -1,
      147, 66, 148, -1,
      148, 66, 65, -1,
      148, 65, 141, -1,
      149, 62, 61, -1,
      149, 61, 150, -1,
      150, 61, 60, -1,
      150, 60, 151, -1,
      151, 60, 59, -1,
      151, 59, 152, -1,
      152, 59, 58, -1,
      152, 58, 153, -1,
      153, 58, 57, -1,
      153, 57, 154, -1,
      154, 57, 56, -1,
      154, 56, 155, -1,
      155, 56, 73, -1,
      155, 73, 156, -1,
      156, 73, 72, -1,
      156, 72, 142, -1,
      62, 149, 63, -1,
      63, 149, 157, -1,
      64, 63, 140, -1,
      140, 63, 157, -1,
      80, 158, 79, -1,
      79, 158, 159, -1,
      79, 159, 76, -1,
      76, 159, 160, -1,
      76, 160, 77, -1,
      77, 160, 161, -1,
      77, 161, 78, -1,
      78, 161, 162, -1,
      78, 162, 74, -1,
      74, 162, 163, -1,
      74, 163, 75, -1,
      75, 163, 164, -1,
      75, 164, 81, -1,
      81, 164, 165, -1,
      80, 81, 158, -1,
      158, 81, 165, -1,
    ]
  }
}

Shape {
  appearance Appearance {
    material Material {
      diffuseColor 0.1098 0.1098 0.1098
      specularColor 0.0784 0.0784 0.0784
      ambientIntensity 0.2
      transparency 0.0000
      shininess 0.5
    }
  }
  geometry IndexedFaceSet {
    ccw TRUE
    solid FALSE
    coord DEF co Coordinate {
      point [
        0.171654 0.078740 0.007874,
        0.196850 0.078740 0.007874,
        0.098425 0.151969 0.007874,
        0.196850 0.167323 0.007874,
        0.098425 0.167323 0.007874,
        -0.196850 0.078740 0.007874,
        -0.171654 0.078740 0.007874,
        -0.196850 0.167323 0.007874,
        -0.098425 0.151969 0.007874,
        -0.098425 0.167323 0.007874,
        -0.171654 -0.078740 0.007874,
        -0.196850 -0.078740 0.007874,
        -0.098425 -0.151969 0.007874,
        -0.196850 -0.167323 0.007874,
        -0.098425 -0.167323 0.007874,
        0.196850 -0.078740 0.007874,
        0.171654 -0.078740 0.007874,
        0.196850 -0.167323 0.007874,
        0.098425 -0.151969 0.007874,
        0.098425 -0.167323 0.007874,
        0.196850 -0.196850 0.007874,
        0.196850 -0.178612 0.007874,
        0.196850 0.196850 0.007874,
        -0.196850 0.196850 0.007874,
        -0.196850 -0.178612 0.007874,
        -0.196850 -0.196850 0.007874,
        -0.006565 -0.196850 0.007874,
        -0.006565 0.196850 0.007874,
        0.026083 -0.178493 0.007874,
        0.026083 -0.176332 0.007874,
        0.033525 -0.176332 0.007874,
        0.033525 -0.158807 0.007874,
        0.036166 -0.158807 0.007874,
        0.036166 -0.178493 0.007874,
        0.009759 -0.177472 0.007874,
        0.009759 -0.175311 0.007874,
        0.014811 -0.176572 0.007874,
        0.012198 -0.176282 0.007874,
        0.010112 -0.175507 0.007874,
        0.021762 -0.168860 0.007874,
        0.021563 -0.170991 0.007874,
        0.021028 -0.172684 0.007874,
        0.020214 -0.174049 0.007874,
        0.019290 -0.175024 0.007874,
        0.018082 -0.175838 0.007874,
        0.016648 -0.176366 0.007874,
        0.014369 -0.160728 0.007874,
        0.016307 -0.160946 0.007874,
        0.017781 -0.161477 0.007874,
        0.019143 -0.162389 0.007874,
        0.020332 -0.163701 0.007874,
        0.021143 -0.165221 0.007874,
        0.021668 -0.167328 0.007874,
        0.009759 -0.161988 0.007874,
        0.011976 -0.161039 0.007874,
        0.009759 -0.159348 0.007874,
        0.014391 -0.158567 0.007874,
        0.012035 -0.158730 0.007874,
        0.024403 -0.169021 0.007874,
        0.024119 -0.166222 0.007874,
        0.023364 -0.163992 0.007874,
        0.022210 -0.162152 0.007874,
        0.020433 -0.160443 0.007874,
        0.018563 -0.159366 0.007874,
        0.016369 -0.158729 0.007874,
        0.015175 -0.178732 0.007874,
        0.016333 -0.178612 0.007874,
        0.017601 -0.178481 0.007874,
        0.019509 -0.177824 0.007874,
        0.021093 -0.176813 0.007874,
        0.022571 -0.175256 0.007874,
        0.023620 -0.173385 0.007874,
        0.024212 -0.171301 0.007874,
        0.011857 -0.178333 0.007874,
        0.013846 -0.178612 0.007874,
        0.014637 -0.178723 0.007874,
        -0.004645 -0.178493 0.007874,
        -0.004645 -0.176332 0.007874,
        0.003277 -0.176332 0.007874,
        0.003277 -0.169610 0.007874,
        -0.003685 -0.169610 0.007874,
        -0.003685 -0.167450 0.007874,
        0.003277 -0.167450 0.007874,
        0.003277 -0.160968 0.007874,
        -0.004165 -0.160968 0.007874,
        -0.004165 -0.158807 0.007874,
        0.005918 -0.158807 0.007874,
        0.005918 -0.178493 0.007874,
        -0.008486 -0.178493 0.007874,
        -0.013839 -0.178493 0.007874,
        -0.024330 -0.168402 0.007874,
        -0.024054 -0.171037 0.007874,
        -0.023347 -0.173097 0.007874,
        -0.022218 -0.174858 0.007874,
        -0.020598 -0.176409 0.007874,
        -0.018543 -0.177604 0.007874,
        -0.016274 -0.178280 0.007874,
        -0.014041 -0.158807 0.007874,
        -0.016885 -0.159111 0.007874,
        -0.019188 -0.159920 0.007874,
        -0.021331 -0.161356 0.007874,
        -0.021351 -0.161374 0.007874,
        -0.022743 -0.162918 0.007874,
        -0.023658 -0.164611 0.007874,
        -0.024187 -0.166550 0.007874,
        -0.008486 -0.158807 0.007874,
        -0.043535 -0.178493 0.007874,
        -0.035853 -0.158807 0.007874,
        -0.033212 -0.158807 0.007874,
        -0.025770 -0.178493 0.007874,
        -0.028651 -0.178493 0.007874,
        -0.030530 -0.172971 0.007874,
        -0.038662 -0.172971 0.007874,
        -0.040654 -0.178493 0.007874,
        -0.006565 -0.178612 0.007874,
      ]
    }
    coordIndex [
      26, 25, 24, -1,
      89, 88, 114, -1,
      112, 111, 110, -1,
      24, 13, 14, -1,
      106, 113, 114, -1,
      109, 92, 93, -1,
      93, 94, 109, -1,
      109, 94, 95, -1,
      109, 95, 96, -1,
      96, 89, 109, -1,
      109, 89, 114, -1,
      109, 114, 110, -1,
      110, 114, 113, -1,
      110, 113, 112, -1,
      98, 27, 97, -1,
      97, 27, 105, -1,
      108, 102, 103, -1,
      5, 6, 107, -1,
      107, 6, 8, -1,
      7, 23, 9, -1,
      9, 23, 27, -1,
      9, 27, 8, -1,
      8, 27, 108, -1,
      8, 108, 107, -1,
      98, 99, 27, -1,
      27, 99, 100, -1,
      27, 100, 108, -1,
      108, 100, 101, -1,
      108, 101, 102, -1,
      103, 104, 108, -1,
      108, 104, 90, -1,
      108, 90, 109, -1,
      109, 90, 91, -1,
      109, 91, 92, -1,
      86, 35, 87, -1,
      87, 35, 34, -1,
      87, 34, 73, -1,
      0, 1, 32, -1,
      73, 74, 87, -1,
      87, 74, 114, -1,
      87, 114, 76, -1,
      76, 114, 77, -1,
      19, 33, 18, -1,
      18, 33, 32, -1,
      18, 32, 16, -1,
      16, 32, 1, -1,
      16, 1, 15, -1,
      2, 27, 4, -1,
      4, 27, 22, -1,
      4, 22, 3, -1,
      85, 84, 114, -1,
      60, 61, 31, -1,
      47, 48, 38, -1,
      38, 48, 49, -1,
      38, 49, 50, -1,
      39, 40, 38, -1,
      38, 40, 41, -1,
      45, 36, 44, -1,
      44, 36, 43, -1,
      41, 42, 38, -1,
      38, 42, 43, -1,
      38, 43, 37, -1,
      37, 43, 36, -1,
      33, 66, 28, -1,
      28, 66, 67, -1,
      28, 67, 68, -1,
      50, 51, 38, -1,
      38, 51, 52, -1,
      38, 52, 39, -1,
      0, 32, 2, -1,
      2, 32, 31, -1,
      2, 31, 27, -1,
      27, 31, 61, -1,
      27, 61, 62, -1,
      88, 105, 114, -1,
      114, 105, 27, -1,
      114, 27, 85, -1,
      85, 27, 86, -1,
      80, 79, 78, -1,
      68, 69, 28, -1,
      28, 69, 70, -1,
      28, 70, 29, -1,
      29, 70, 71, -1,
      29, 71, 30, -1,
      78, 77, 80, -1,
      80, 77, 114, -1,
      80, 114, 81, -1,
      81, 114, 84, -1,
      81, 84, 82, -1,
      82, 84, 83, -1,
      62, 63, 27, -1,
      27, 63, 64, -1,
      27, 64, 56, -1,
      71, 72, 30, -1,
      30, 72, 58, -1,
      30, 58, 31, -1,
      31, 58, 59, -1,
      31, 59, 60, -1,
      56, 57, 27, -1,
      27, 57, 55, -1,
      27, 55, 86, -1,
      86, 55, 53, -1,
      86, 53, 35, -1,
      35, 53, 54, -1,
      35, 54, 38, -1,
      38, 54, 46, -1,
      38, 46, 47, -1,
      74, 75, 26, -1,
      26, 75, 65, -1,
      26, 65, 66, -1,
      19, 17, 33, -1,
      33, 17, 21, -1,
      33, 21, 66, -1,
      66, 21, 20, -1,
      66, 20, 26, -1,
      74, 26, 114, -1,
      114, 26, 24, -1,
      114, 24, 106, -1,
      106, 24, 14, -1,
      106, 14, 107, -1,
      107, 14, 12, -1,
      107, 12, 5, -1,
      5, 12, 10, -1,
      5, 10, 11, -1,
    ]
  }
}

Shape {
  appearance Appearance {
    material Material {
      diffuseColor 0.9686 0.8784 0.6000
      specularColor 0.6784 0.6157 0.4196
      ambientIntensity 0.2
      transparency 0.0000
      shininess 0.5
    }
  }
  geometry IndexedFaceSet {
    ccw TRUE
    solid FALSE
    coord DEF co Coordinate {
      point [
        -0.076557 0.062637 0.053150,
        -0.076557 0.062637 0.000000,
        -0.072167 0.057034 0.053150,
        -0.072167 0.057034 0.000000,
        -0.069245 0.050543 0.053150,
        -0.069245 0.050543 0.000000,
        -0.067962 0.043541 0.053150,
        -0.067962 0.043541 0.000000,
        -0.068392 0.036436 0.053150,
        -0.068392 0.036436 0.000000,
        -0.070510 0.029640 0.053150,
        -0.070510 0.029640 0.000000,
        -0.074193 0.023548 0.053150,
        -0.074193 0.023548 0.000000,
        -0.079226 0.018515 0.053150,
        -0.079226 0.018515 0.000000,
        -0.085317 0.014832 0.053150,
        -0.085317 0.014832 0.000000,
        -0.092113 0.012715 0.053150,
        -0.092113 0.012715 0.000000,
        -0.099219 0.012285 0.053150,
        -0.099219 0.012285 0.000000,
        -0.106220 0.013568 0.053150,
        -0.106220 0.013568 0.000000,
        -0.112712 0.016489 0.053150,
        -0.112712 0.016489 0.000000,
        -0.118315 0.020879 0.053150,
        -0.118315 0.020879 0.000000,
        -0.139194 -0.000000 0.053150,
        -0.139194 -0.000000 0.000000,
        0.000000 -0.139194 0.053150,
        0.000000 -0.139194 -0.000000,
        0.139194 0.000000 0.053150,
        0.139194 0.000000 0.000000,
        -0.000000 0.139194 0.053150,
        -0.000000 0.139194 0.000000,
      ]
    }
    coordIndex [
      0, 1, 2, -1,
      2, 1, 3, -1,
      2, 3, 4, -1,
      4, 3, 5, -1,
      4, 5, 6, -1,
      6, 5, 7, -1,
      6, 7, 8, -1,
      8, 7, 9, -1,
      8, 9, 10, -1,
      10, 9, 11, -1,
      10, 11, 12, -1,
      12, 11, 13, -1,
      12, 13, 14, -1,
      14, 13, 15, -1,
      14, 15, 16, -1,
      16, 15, 17, -1,
      16, 17, 18, -1,
      18, 17, 19, -1,
      18, 19, 20, -1,
      20, 19, 21, -1,
      20, 21, 22, -1,
      22, 21, 23, -1,
      22, 23, 24, -1,
      24, 23, 25, -1,
      24, 25, 26, -1,
      26, 25, 27, -1,
      28, 26, 29, -1,
      29, 26, 27, -1,
      30, 28, 31, -1,
      31, 28, 29, -1,
      32, 30, 33, -1,
      33, 30, 31, -1,
      34, 32, 35, -1,
      35, 32, 33, -1,
      0, 34, 1, -1,
      1, 34, 35, -1,
      24, 26, 28, -1,
      34, 0, 2, -1,
      34, 2, 32, -1,
      32, 2, 4, -1,
      32, 4, 6, -1,
      30, 14, 16, -1,
      6, 8, 32, -1,
      32, 8, 10, -1,
      32, 10, 30, -1,
      30, 10, 12, -1,
      30, 12, 14, -1,
      16, 18, 30, -1,
      30, 18, 20, -1,
      30, 20, 28, -1,
      28, 20, 22, -1,
      28, 22, 24, -1,
      31, 19, 17, -1,
      9, 7, 33, -1,
      33, 7, 5, -1,
      33, 5, 35, -1,
      35, 5, 3, -1,
      35, 3, 1, -1,
      17, 15, 31, -1,
      31, 15, 13, -1,
      31, 13, 33, -1,
      33, 13, 11, -1,
      33, 11, 9, -1,
      27, 25, 29, -1,
      29, 25, 23, -1,
      29, 23, 31, -1,
      31, 23, 21, -1,
      31, 21, 19, -1,
    ]
  }
}
